<svg xmlns="http://www.w3.org/2000/svg" viewBox="0 0 187.14 178.94">
    <title>Pixstory</title>
    <g>
        <path d="M187.14,32.28v42.9c-.22,.65-.58,1.29-.65,1.96-1.9,16.07-16.6,29.94-32.91,30.64-10.33,.44-20.69,.4-31.03,.54-3.69,.05-7.38,0-11.43,0v70.6c-25.41,0-50.44,.05-75.47-.02-12.21-.04-21.53-5.82-28.88-15.02C1.97,157.89-.04,150.82,0,143.28c.08-14.15-.3-28.35,.85-42.43,1.26-15.49,16.74-29.1,32.52-29.68,12.62-.46,25.26-.4,37.89-.56,1.41-.02,2.82,0,4.61,0V.2c.95-.07,1.53-.15,2.11-.15,24.55-.02,49.11-.11,73.66,0,11.75,.05,20.78,5.66,28.13,14.36,4.39,5.19,6.03,11.46,7.37,17.87ZM56.09,105.73c-5.89,0-11.79,.06-17.68-.03-2.21-.03-3.4,.63-3.4,2.99,.04,10.83,.02,21.66,.03,32.49,0,2.19,1.1,3.21,3.37,3.21,11.55-.04,23.09-.03,34.64,0,2.36,0,3.5-.91,3.49-3.4-.07-10.71-.08-21.42,.01-32.13,.02-2.33-.81-3.19-3.14-3.15-5.77,.09-11.55,.03-17.32,.03Zm75.26-32.15c5.65,0,11.3-.06,16.95,.03,2.72,.04,3.93-1,3.91-3.77-.07-10.35-.06-20.7,0-31.05,.01-2.61-.85-3.96-3.73-3.94-11.42,.08-22.85,.07-34.27,0-2.86-.01-3.67,1.28-3.65,3.96,.11,10.35,.13,20.7,0,31.05-.04,2.9,1.18,3.77,3.84,3.74,5.65-.07,11.3-.02,16.95-.02Z"></path>
    </g>
</svg>