<svg xmlns="http://www.w3.org/2000/svg" xmlns:xlink="http://www.w3.org/1999/xlink" x="0px" y="0px" viewBox="84.3 32.3 47.4 81.3" enable-background="new 84.3 32.3 47.4 81.3" xml:space="preserve">
        <path fill="currentColor" d="M130.9,71.1l-38-38c-0.5-0.5-1.2-0.8-1.9-0.8s-1.3,0.3-1.9,0.8l-4.1,4.1c-0.5,0.5-0.8,1.2-0.8,1.9s0.3,1.3,0.8,1.9l32,32
          l-32,32c-0.5,0.5-0.8,1.2-0.8,1.9c0,0.7,0.3,1.3,0.8,1.9l4.1,4.1c0.5,0.5,1.2,0.8,1.9,0.8s1.3-0.3,1.9-0.8l38-38
          c0.5-0.5,0.8-1.2,0.8-1.9S131.4,71.7,130.9,71.1z"></path>
        </svg>