<svg xmlns="http://www.w3.org/2000/svg" style="shape-rendering:geometricPrecision; text-rendering:geometricPrecision; image-rendering:optimizeQuality; fill-rule:evenodd; clip-rule:evenodd" viewBox="0 0 566 400">
  <title>ZC Rubber logo</title>
  <g><path fill="#363E4B" d="M 196.5,130.5 C 196.047,131.458 195.381,132.292 194.5,133C 197.645,134.978 200.312,137.478 202.5,140.5C 200.269,140.887 197.936,141.053 195.5,141C 197.983,144.958 199.983,149.124 201.5,153.5C 201.167,154.5 200.833,155.5 200.5,156.5C 195.628,152.324 193.961,153.491 195.5,160C 197.137,160.601 198.803,161.101 200.5,161.5C 203.094,160.616 205.594,159.616 208,158.5C 209.226,158.645 210.393,158.978 211.5,159.5C 213.025,156.647 215.191,155.647 218,156.5C 224.774,153.276 230.274,154.943 234.5,161.5C 232.138,161.974 229.805,162.308 227.5,162.5C 228.891,164.936 228.391,165.602 226,164.5C 225.667,166.833 225.333,169.167 225,171.5C 222.667,169.167 220.333,166.833 218,164.5C 217.852,166.577 218.352,168.577 219.5,170.5C 226.248,174.923 225.248,176.757 216.5,176C 221.526,180.342 224.859,185.675 226.5,192C 226.462,195.888 225.296,196.388 223,193.5C 221.138,195.361 221.638,196.694 224.5,197.5C 223.975,198.192 223.308,198.692 222.5,199C 222.833,199.333 223.167,199.667 223.5,200C 218.886,200.67 218.886,202.337 223.5,205C 224.833,205.333 226.167,205.667 227.5,206C 225.372,207.667 224.039,209.834 223.5,212.5C 222.186,211.687 221.019,210.687 220,209.5C 219.798,211.256 219.298,212.922 218.5,214.5C 216.515,212.543 215.015,210.21 214,207.5C 213.902,209.619 213.069,211.286 211.5,212.5C 209.851,210.35 208.018,208.35 206,206.5C 205.911,210.028 205.244,213.362 204,216.5C 202.954,214.91 201.787,213.41 200.5,212C 199.451,211.508 198.451,211.674 197.5,212.5C 195.316,208.474 193.816,208.807 193,213.5C 190.996,210.156 188.663,207.823 186,206.5C 184.192,208.843 182.026,209.51 179.5,208.5C 180.563,206.634 179.896,206.134 177.5,207C 177.018,208.008 176.852,209.175 177,210.5C 170.859,204.169 164.525,204.169 158,210.5C 157.369,214.857 157.535,219.191 158.5,223.5C 159.022,225.926 160.355,227.76 162.5,229C 160.578,232.676 159.078,236.509 158,240.5C 157.333,263.833 157.333,287.167 158,310.5C 158.163,312.676 158.996,314.509 160.5,316C 286.457,317.493 412.457,317.993 538.5,317.5C 538.5,318.833 538.5,320.167 538.5,321.5C 364.833,321.5 191.167,321.5 17.5,321.5C 17.5,320.167 17.5,318.833 17.5,317.5C 57.8347,317.667 98.168,317.5 138.5,317C 141.276,316.934 143.442,315.768 145,313.5C 145.975,285.438 145.641,257.438 144,229.5C 141.209,224.849 137.042,222.349 131.5,222C 127.331,216.196 122.665,215.529 117.5,220C 120.844,223.184 122.011,227.018 121,231.5C 118.667,229.167 116.333,226.833 114,224.5C 111.021,233.53 108.688,233.53 107,224.5C 105.276,226.845 103.443,227.345 101.5,226C 102.236,223.861 103.236,221.861 104.5,220C 104.043,219.586 103.709,219.086 103.5,218.5C 106.9,217.091 110.233,215.591 113.5,214C 109.65,215.144 108.817,213.977 111,210.5C 113.228,208.887 115.728,208.22 118.5,208.5C 117.392,204.869 115.226,201.869 112,199.5C 110.301,200.406 108.467,200.739 106.5,200.5C 108.167,204.339 108.667,208.339 108,212.5C 106.691,210.024 104.858,208.024 102.5,206.5C 100.758,210.318 98.7582,213.984 96.5,217.5C 95.6858,215.234 95.1858,212.9 95,210.5C 93.3333,212.167 91.6667,213.833 90,215.5C 88.7339,212.233 88.9006,208.9 90.5,205.5C 88.8647,204.319 87.198,204.319 85.5,205.5C 84.4104,204.609 84.4104,203.609 85.5,202.5C 83.838,201.673 82.5046,200.507 81.5,199C 84.1189,197.144 84.9523,194.644 84,191.5C 80.0231,199.584 78.0231,198.917 78,189.5C 75.6496,191.683 73.483,194.016 71.5,196.5C 70.0998,193.138 70.4331,189.971 72.5,187C 71.0506,185.883 69.3839,185.216 67.5,185C 67.8333,184.667 68.1667,184.333 68.5,184C 67.8095,182.933 67.3095,181.766 67,180.5C 63.0189,187.034 61.3523,186.034 62,177.5C 57.8864,184.362 56.3864,184.029 57.5,176.5C 50.5421,177.225 49.8755,175.392 55.5,171C 58.8333,170 62.1667,169 65.5,168C 62.9556,166.908 60.2889,166.241 57.5,166C 56.4829,164.951 56.3162,163.784 57,162.5C 61.0828,163.642 64.9161,165.309 68.5,167.5C 69.1667,166.833 69.8333,166.167 70.5,165.5C 72.8333,166.833 75.1667,168.167 77.5,169.5C 80.4614,168.817 80.7947,167.984 78.5,167C 79.6405,166.259 79.6405,165.425 78.5,164.5C 76.0743,163.832 73.741,163.498 71.5,163.5C 72.3128,162.186 73.3128,161.019 74.5,160C 71.5488,159.904 68.8822,159.071 66.5,157.5C 68.061,156.653 69.561,156.986 71,158.5C 74.0969,157.711 74.2636,156.544 71.5,155C 73.4335,154.217 74.9335,154.717 76,156.5C 78.1551,155.317 80.1551,155.65 82,157.5C 82.4493,154.906 81.4493,152.906 79,151.5C 78.3333,150.833 78.3333,150.167 79,149.5C 81,150.833 83,152.167 85,153.5C 87.7042,151.35 87.8709,149.184 85.5,147C 86.5,146.667 87.5,146.333 88.5,146C 87.0257,144.684 85.359,143.684 83.5,143C 84.2567,141.488 85.2567,140.154 86.5,139C 81.5235,139.626 81.1902,138.292 85.5,135C 84.6919,134.692 84.0253,134.192 83.5,133.5C 87.9699,129.495 93.1366,128.495 99,130.5C 100.775,129.73 102.275,128.563 103.5,127C 101.299,126.175 99.4659,126.675 98,128.5C 97.8208,126.576 97.6541,124.909 97.5,123.5C 95.6687,124.929 93.6687,125.429 91.5,125C 94.8444,119.992 99.5111,116.992 105.5,116C 100.368,114.137 100.368,113.137 105.5,113C 107.691,115.706 110.525,117.206 114,117.5C 116.449,116.094 117.449,114.094 117,111.5C 115.915,113.657 114.749,113.824 113.5,112C 114.622,108.055 113.622,107.555 110.5,110.5C 109.808,108.665 110.142,106.832 111.5,105C 109.744,104.86 108.078,105.36 106.5,106.5C 106.035,103.677 107.035,101.177 109.5,99C 108.643,98.3109 107.977,97.4776 107.5,96.5C 109.05,94.5721 110.717,92.7387 112.5,91C 108.911,91.2904 107.411,89.7904 108,86.5C 109.402,88.9734 110.902,88.9734 112.5,86.5C 113.5,87.8333 114.5,89.1667 115.5,90.5C 116.448,87.285 117.781,86.9516 119.5,89.5C 123.752,86.8234 127.586,87.49 131,91.5C 132.833,90.3333 134.667,89.1667 136.5,88C 135.167,87.6667 133.833,87.3333 132.5,87C 134.569,85.3541 135.902,83.1875 136.5,80.5C 138.003,81.5901 138.336,82.7567 137.5,84C 139.179,84.3947 140.845,84.228 142.5,83.5C 144.167,84.8333 145.833,86.1667 147.5,87.5C 149.055,87.278 150.389,86.6113 151.5,85.5C 153.5,82.8333 155.5,80.1667 157.5,77.5C 157.479,80.6408 156.146,83.4741 153.5,86C 155.134,86.4935 156.801,86.6602 158.5,86.5C 158.343,85.1266 158.51,83.7932 159,82.5C 160.998,81.1706 163.165,80.1706 165.5,79.5C 171.084,81.6488 176.751,83.6488 182.5,85.5C 182.607,87.9032 181.607,89.7365 179.5,91C 183.719,91.7913 187.386,93.6246 190.5,96.5C 189.141,98.306 189.475,99.806 191.5,101C 190.167,101.333 188.833,101.667 187.5,102C 191.81,105.292 191.477,106.626 186.5,106C 187.167,107 187.833,108 188.5,109C 186.915,109.085 185.582,109.251 184.5,109.5C 185.987,113.521 188.487,116.854 192,119.5C 193.901,118.464 195.735,117.298 197.5,116C 200.047,115.34 202.547,115.507 205,116.5C 206.559,115.971 208.059,115.304 209.5,114.5C 210.749,116.475 212.249,116.809 214,115.5C 215.36,117.105 216.86,118.605 218.5,120C 217.5,120.333 216.5,120.667 215.5,121C 216.696,121.654 216.696,122.154 215.5,122.5C 214.833,122.167 214.167,121.833 213.5,121.5C 212.9,123.576 212.567,125.576 212.5,127.5C 211.186,126.687 210.019,125.687 209,124.5C 208.517,125.448 208.351,126.448 208.5,127.5C 205.576,126.608 202.742,126.275 200,126.5C 199.667,128.5 199.333,130.5 199,132.5C 198.292,131.619 197.458,130.953 196.5,130.5 Z M 170.5,89.5 C 171.473,89.9867 172.473,90.4867 173.5,91C 171.843,91.7252 170.843,91.2252 170.5,89.5 Z M 142.5,95.5 C 144.337,95.6395 144.67,96.3061 143.5,97.5C 142.702,97.0431 142.369,96.3764 142.5,95.5 Z M 125.5,98.5 C 125.735,97.9033 126.235,97.5699 127,97.5C 128.5,98 130,98.5 131.5,99C 131,99.5 130.5,100 130,100.5C 128.53,99.7334 127.03,99.0668 125.5,98.5 Z M 155.5,98.5 C 158.3,100.476 157.967,101.309 154.5,101C 155.252,100.329 155.586,99.4959 155.5,98.5 Z M 147.5,109.5 C 147.231,107.571 147.731,105.905 149,104.5C 149.203,106.391 148.703,108.057 147.5,109.5 Z M 147.5,109.5 C 147.27,111.983 146.603,112.483 145.5,111C 145.836,109.97 146.503,109.47 147.5,109.5 Z M 180.5,110.5 C 181.289,110.783 181.956,111.283 182.5,112C 181.184,112.528 180.517,112.028 180.5,110.5 Z M 118.5,116.5 C 119.311,119.484 118.311,119.984 115.5,118C 116.737,117.768 117.737,117.268 118.5,116.5 Z M 185.5,118.5 C 188.125,119.466 188.125,120.466 185.5,121.5C 182.955,120.451 182.955,119.451 185.5,118.5 Z M 148.5,121.5 C 150.377,122.659 150.877,124.326 150,126.5C 148.991,124.975 148.491,123.308 148.5,121.5 Z M 175.5,122.5 C 178.254,123.366 180.921,124.533 183.5,126C 182.736,128.069 182.236,130.236 182,132.5C 178.231,134.378 174.565,136.378 171,138.5C 169.908,141.044 169.241,143.711 169,146.5C 167.509,144.996 165.676,144.163 163.5,144C 162.028,140.448 163.362,138.782 167.5,139C 167.043,138.586 166.709,138.086 166.5,137.5C 168.288,135.424 169.954,133.257 171.5,131C 173.167,130.667 174.833,130.333 176.5,130C 174.36,127.827 174.026,125.327 175.5,122.5 Z M 112.5,125.5 C 115.532,126.999 117.032,129.332 117,132.5C 114.98,130.449 113.48,128.116 112.5,125.5 Z M 169.5,125.5 C 171.225,125.843 171.725,126.843 171,128.5C 169.961,127.756 169.461,126.756 169.5,125.5 Z M 161.5,126.5 C 164.902,127.558 165.402,129.558 163,132.5C 162.411,130.137 160.911,129.137 158.5,129.5C 158.875,132.907 157.875,133.407 155.5,131C 157.229,129.052 159.229,127.552 161.5,126.5 Z M 143.5,127.5 C 145.337,127.639 145.67,128.306 144.5,129.5C 143.702,129.043 143.369,128.376 143.5,127.5 Z M 196.5,130.5 C 194.972,130.483 194.472,129.816 195,128.5C 195.717,129.044 196.217,129.711 196.5,130.5 Z M 111.5,136.5 C 108.226,136.372 108.059,135.039 111,132.5C 111.49,133.793 111.657,135.127 111.5,136.5 Z M 106.5,138.5 C 104.804,138.315 103.471,137.481 102.5,136C 104.412,135.721 105.746,136.554 106.5,138.5 Z M 106.5,138.5 C 109.313,138.548 111.979,139.215 114.5,140.5C 115.386,141.325 115.719,142.325 115.5,143.5C 111.756,143.072 108.756,141.405 106.5,138.5 Z M 123.5,139.5 C 126.674,139.952 127.007,140.952 124.5,142.5C 123.614,141.675 123.281,140.675 123.5,139.5 Z M 154.5,141.5 C 155.921,144.508 155.754,147.508 154,150.5C 152.032,147.302 152.199,144.302 154.5,141.5 Z M 104.5,142.5 C 106.255,143.072 107.922,143.906 109.5,145C 106.499,147.195 104.833,146.362 104.5,142.5 Z M 139.5,144.5 C 140.801,146.018 141.634,147.684 142,149.5C 138.98,148.7 138.146,147.033 139.5,144.5 Z M 180.5,146.5 C 181.077,145.227 181.743,145.227 182.5,146.5C 182.03,147.463 181.363,147.463 180.5,146.5 Z M 98.5,147.5 C 99.7942,148.29 100.961,149.29 102,150.5C 102.283,147.258 103.117,146.924 104.5,149.5C 103.506,152.399 104.506,153.066 107.5,151.5C 107.88,153.021 108.046,154.687 108,156.5C 110.349,155.16 112.683,153.826 115,152.5C 116.477,153.444 117.477,154.777 118,156.5C 119.852,152.999 121.685,153.332 123.5,157.5C 123.113,158.72 122.28,159.387 121,159.5C 116.389,157.042 111.889,157.042 107.5,159.5C 103.053,158.11 99.0525,155.944 95.5,153C 96.6394,151.22 97.6394,149.386 98.5,147.5 Z M 128.5,148.5 C 129.721,147.535 131.054,147.702 132.5,149C 131.874,149.75 131.374,150.584 131,151.5C 130.623,150.058 129.79,149.058 128.5,148.5 Z M 91.5,148.5 C 94.1962,152.378 92.8628,153.544 87.5,152C 89.3237,151.34 90.657,150.173 91.5,148.5 Z M 172.5,149.5 C 173.5,149.5 174.5,149.5 175.5,149.5C 175.219,151.963 174.219,154.13 172.5,156C 175.187,156.537 177.687,156.037 180,154.5C 181.119,158.443 179.953,159.776 176.5,158.5C 175.062,158.719 173.729,159.219 172.5,160C 170.274,164.174 167.607,168.007 164.5,171.5C 163.675,172.386 162.675,172.719 161.5,172.5C 161.337,170.143 161.503,167.81 162,165.5C 167.761,161.587 171.261,156.253 172.5,149.5 Z M 146.5,150.5 C 149.716,150.872 150.216,152.206 148,154.5C 146.812,153.437 146.312,152.103 146.5,150.5 Z M 134.5,153.5 C 137.699,155.978 138.199,158.978 136,162.5C 132.117,167.363 128.95,166.696 126.5,160.5C 126.608,159.558 126.941,158.725 127.5,158C 130.239,156.974 132.572,155.474 134.5,153.5 Z M 153.5,153.5 C 154.497,153.47 155.164,153.97 155.5,155C 153.906,159.314 153.239,158.814 153.5,153.5 Z M 160.5,154.5 C 163.962,156.193 163.962,157.193 160.5,157.5C 160.5,156.5 160.5,155.5 160.5,154.5 Z M 142.5,157.5 C 144.196,163.607 146.196,169.274 148.5,174.5C 146.12,173.206 143.62,172.206 141,171.5C 139.347,171.82 138.347,172.82 138,174.5C 135.943,170.984 136.609,167.984 140,165.5C 141.136,162.904 141.969,160.237 142.5,157.5 Z M 193.5,161.5 C 194.552,161.351 195.552,161.517 196.5,162C 195.333,163.167 194.167,164.333 193,165.5C 191.07,163.923 191.237,162.59 193.5,161.5 Z M 86.5,162.5 C 87.5983,163.601 87.765,164.934 87,166.5C 86.2496,165.874 85.4162,165.374 84.5,165C 85.3805,164.292 86.0472,163.458 86.5,162.5 Z M 113.5,162.5 C 119.857,163.267 125.023,166.267 129,171.5C 130.833,174.5 132.667,177.5 134.5,180.5C 130.978,181.903 127.312,182.903 123.5,183.5C 124.641,184.425 124.641,185.259 123.5,186C 121.975,187.009 120.308,187.509 118.5,187.5C 117.727,183.954 117.727,180.454 118.5,177C 118,175.5 117.5,174 117,172.5C 112.483,172.542 109.316,170.209 107.5,165.5C 109.444,164.199 111.444,163.199 113.5,162.5 Z M 211.5,166.5 C 212.473,166.987 213.473,167.487 214.5,168C 212.843,168.725 211.843,168.225 211.5,166.5 Z M 100.5,173.5 C 101.204,171.656 102.537,171.156 104.5,172C 103.437,173.188 102.103,173.688 100.5,173.5 Z M 171.5,176.5 C 168.203,176.671 167.869,176.005 170.5,174.5C 171.298,174.957 171.631,175.624 171.5,176.5 Z M 140.5,176.5 C 141.5,176.5 142.5,176.5 143.5,176.5C 143.521,181.366 142.521,181.366 140.5,176.5 Z M 177.5,176.5 C 179.476,177.427 179.809,178.76 178.5,180.5C 177.571,179.311 177.238,177.978 177.5,176.5 Z M 110.5,177.5 C 112.387,179.188 113.553,181.188 114,183.5C 111.735,182.084 110.569,180.084 110.5,177.5 Z M 207.5,177.5 C 209.14,178.32 210.807,179.153 212.5,180C 209.981,180.741 208.315,179.908 207.5,177.5 Z M 73.5,178.5 C 74.4511,179.919 74.7845,181.585 74.5,183.5C 72.8008,183.66 71.1341,183.494 69.5,183C 71.0414,181.629 72.3747,180.129 73.5,178.5 Z M 149.5,179.5 C 150.621,181.089 150.454,182.756 149,184.5C 148.616,182.803 148.782,181.137 149.5,179.5 Z M 102.5,180.5 C 103.773,181.077 103.773,181.743 102.5,182.5C 101.537,182.03 101.537,181.363 102.5,180.5 Z M 189.5,181.5 C 190.497,180.287 191.497,180.454 192.5,182C 191.423,182.47 190.423,182.303 189.5,181.5 Z M 196.5,180.5 C 199.001,180.511 199.168,181.178 197,182.5C 196.536,181.906 196.369,181.239 196.5,180.5 Z M 185.5,183.5 C 187.372,184.511 189.372,185.345 191.5,186C 189.833,186.667 188.167,186.667 186.5,186C 185.748,185.329 185.414,184.496 185.5,183.5 Z M 177.5,184.5 C 180.493,184.996 182.826,186.496 184.5,189C 181.373,189.392 178.373,190.225 175.5,191.5C 172.672,187.802 173.005,187.135 176.5,189.5C 177.452,187.955 177.785,186.288 177.5,184.5 Z M 121.5,193.5 C 119.934,197.285 121.267,199.285 125.5,199.5C 125.933,196.834 126.433,194.168 127,191.5C 129.124,190.378 130.957,188.878 132.5,187C 136.847,185.923 140.014,187.423 142,191.5C 144.165,195.327 145.498,199.327 146,203.5C 139.686,195.612 133.519,195.612 127.5,203.5C 125.833,204.833 124.167,204.833 122.5,203.5C 121.222,201.278 120.222,198.944 119.5,196.5C 119.453,194.962 120.12,193.962 121.5,193.5 Z M 156.5,187.5 C 156.527,191.699 158.193,192.533 161.5,190C 162.126,189.25 162.626,188.416 163,187.5C 163.27,190.362 164.104,193.028 165.5,195.5C 166.48,194.019 167.647,192.685 169,191.5C 169.041,197.302 166.208,200.969 160.5,202.5C 156.789,200.771 154.789,197.771 154.5,193.5C 154.599,191.201 155.266,189.201 156.5,187.5 Z M 196.5,189.5 C 196.917,194.068 194.917,195.568 190.5,194C 192.803,192.876 194.803,191.376 196.5,189.5 Z M 101.5,194.5 C 99.712,194.785 98.0453,194.452 96.5,193.5C 98.4939,190.965 100.161,191.299 101.5,194.5 Z M 200.5,192.5 C 206.719,193.851 206.886,195.518 201,197.5C 197.98,196.178 197.813,194.511 200.5,192.5 Z M 216.5,192.5 C 217.267,193.172 217.934,194.005 218.5,195C 216.939,195.188 216.272,194.355 216.5,192.5 Z M 104.5,194.5 C 106.308,194.491 107.975,194.991 109.5,196C 108.667,196.167 107.833,196.333 107,196.5C 105.624,196.316 104.791,195.649 104.5,194.5 Z M 177.5,194.5 C 179.199,194.34 180.866,194.506 182.5,195C 181.383,198.028 179.716,200.695 177.5,203C 175.833,203.667 174.167,203.667 172.5,203C 171.483,201.951 171.316,200.784 172,199.5C 173.107,196.887 174.94,195.22 177.5,194.5 Z M 96.5,196.5 C 99.0217,196.128 101.022,196.961 102.5,199C 99.7658,199.21 97.2658,200.044 95,201.5C 94.3872,199.505 94.8872,197.838 96.5,196.5 Z M 133.5,202.5 C 136.97,201.875 139.804,202.875 142,205.5C 144.349,209.195 145.849,213.195 146.5,217.5C 146,218.5 145.5,219.5 145,220.5C 140.074,217.286 134.907,214.452 129.5,212C 133.73,210.563 134.397,208.229 131.5,205C 132.381,204.292 133.047,203.458 133.5,202.5 Z M 198.5,208.5 C 197.711,208.217 197.044,207.717 196.5,207C 197.816,206.472 198.483,206.972 198.5,208.5 Z"></path></g>
  <g><path fill="#363E4B" d="M 411.5,172.5 C 413.696,172.565 415.696,173.232 417.5,174.5C 417.023,175.478 416.357,176.311 415.5,177C 419.129,176.89 422.796,176.724 426.5,176.5C 426.351,177.552 426.517,178.552 427,179.5C 428.431,176.96 430.098,174.627 432,172.5C 434.036,172.954 435.87,173.787 437.5,175C 436.833,175.667 436.167,176.333 435.5,177C 439.819,177.076 444.152,176.909 448.5,176.5C 448.5,178.167 448.5,179.833 448.5,181.5C 445.482,181.335 442.482,181.502 439.5,182C 440.38,183.356 440.714,184.856 440.5,186.5C 440.363,187.78 442.697,188.113 447.5,187.5C 447.5,189.167 447.5,190.833 447.5,192.5C 441.132,192.17 434.798,192.504 428.5,193.5C 433.456,194.494 438.456,194.827 443.5,194.5C 443.665,198.182 443.499,201.848 443,205.5C 441.693,206.772 440.193,207.772 438.5,208.5C 442.162,210.107 445.829,211.607 449.5,213C 447.641,214.558 446.141,216.391 445,218.5C 439.155,215.989 433.822,212.656 429,208.5C 428.501,212.152 428.335,215.818 428.5,219.5C 426.833,219.5 425.167,219.5 423.5,219.5C 423.666,215.486 423.499,211.486 423,207.5C 418.73,212.461 413.73,216.461 408,219.5C 406.5,218 405,216.5 403.5,215C 411.032,211.462 417.365,206.462 422.5,200C 419.518,199.502 416.518,199.335 413.5,199.5C 413.5,202.167 413.5,204.833 413.5,207.5C 411.833,207.5 410.167,207.5 408.5,207.5C 408.5,203.167 408.5,198.833 408.5,194.5C 413.544,194.827 418.544,194.494 423.5,193.5C 417.537,192.504 411.537,192.171 405.5,192.5C 405.5,190.833 405.5,189.167 405.5,187.5C 408.833,187.5 412.167,187.5 415.5,187.5C 415.167,185.5 414.833,183.5 414.5,181.5C 413.448,181.351 412.448,181.517 411.5,182C 409.183,187.281 406.183,187.781 402.5,183.5C 406.215,180.393 409.215,176.727 411.5,172.5 Z M 419.5,181.5 C 421.527,181.338 423.527,181.505 425.5,182C 423.845,183.444 423.178,185.278 423.5,187.5C 421.801,187.66 420.134,187.494 418.5,187C 419.428,186.612 420.095,185.945 420.5,185C 420.011,183.862 419.678,182.695 419.5,181.5 Z M 432.5,181.5 C 434.614,182.784 435.614,184.784 435.5,187.5C 433.143,187.663 430.81,187.497 428.5,187C 429.665,185.008 430.998,183.175 432.5,181.5 Z M 428.5,199.5 C 431.833,199.5 435.167,199.5 438.5,199.5C 438.5,200.5 438.5,201.5 438.5,202.5C 436.712,202.215 435.045,202.548 433.5,203.5C 434.326,204.451 434.492,205.451 434,206.5C 431.546,204.559 429.713,202.225 428.5,199.5 Z"></path></g>
  <g><path fill="#363E4B" d="M 475.5,213.5 C 473.219,214.608 471.052,215.942 469,217.5C 467.5,216 466,214.5 464.5,213C 466.087,212.138 467.754,211.471 469.5,211C 468.04,209.418 466.373,208.085 464.5,207C 465.328,206.085 466.328,205.419 467.5,205C 466.333,203.833 465.167,202.667 464,201.5C 463.501,207.157 463.334,212.824 463.5,218.5C 461.833,218.5 460.167,218.5 458.5,218.5C 458.666,212.158 458.5,205.825 458,199.5C 457.361,202.112 456.194,204.446 454.5,206.5C 452.728,205.73 451.728,204.397 451.5,202.5C 453.497,197.838 455.497,193.172 457.5,188.5C 455.997,187.948 454.331,187.948 452.5,188.5C 452.5,186.833 452.5,185.167 452.5,183.5C 454.5,183.5 456.5,183.5 458.5,183.5C 458.5,180.167 458.5,176.833 458.5,173.5C 460.167,173.5 461.833,173.5 463.5,173.5C 463.5,176.833 463.5,180.167 463.5,183.5C 464.822,183.33 465.989,183.663 467,184.5C 470.388,180.62 473.554,176.62 476.5,172.5C 478.225,173.015 479.892,173.682 481.5,174.5C 481.291,175.086 480.957,175.586 480.5,176C 484.211,176.175 487.878,176.675 491.5,177.5C 487.047,182.523 488.38,184.523 495.5,183.5C 495.5,187.167 495.5,190.833 495.5,194.5C 494.127,194.343 492.793,194.51 491.5,195C 495.634,197.732 495.301,199.899 490.5,201.5C 492.239,205.735 494.906,209.235 498.5,212C 496.631,213.602 494.631,214.602 492.5,215C 490.014,211.863 488.181,208.363 487,204.5C 486.349,206.235 486.515,207.902 487.5,209.5C 487.337,216.167 484.004,219.001 477.5,218C 476.733,216.53 476.067,215.03 475.5,213.5 Z M 476.5,180.5 C 478.924,180.192 481.257,180.526 483.5,181.5C 482.473,183.024 480.973,183.691 479,183.5C 476.123,183.563 475.289,182.563 476.5,180.5 Z M 468.5,197.5 C 468.649,196.448 468.483,195.448 468,194.5C 466.315,192.983 464.815,191.316 463.5,189.5C 465.585,187.425 467.419,187.425 469,189.5C 469.494,191.134 469.66,192.801 469.5,194.5C 474.341,195.116 474.008,196.116 468.5,197.5 Z M 474.5,187.5 C 476.288,187.215 477.955,187.548 479.5,188.5C 478.332,190.217 476.665,190.884 474.5,190.5C 474.5,189.5 474.5,188.5 474.5,187.5 Z M 484.5,187.5 C 486.5,187.5 488.5,187.5 490.5,187.5C 490.5,188.5 490.5,189.5 490.5,190.5C 488.5,190.5 486.5,190.5 484.5,190.5C 484.5,189.5 484.5,188.5 484.5,187.5 Z M 481.5,194.5 C 484.187,194.336 486.854,194.503 489.5,195C 486.261,199.84 483.595,199.673 481.5,194.5 Z M 475.5,213.5 C 477.771,211.734 479.937,209.734 482,207.5C 482.625,212.372 480.459,214.372 475.5,213.5 Z"></path></g>
  <g><path fill="#363E4B" d="M 529.5,172.5 C 530.5,172.5 531.5,172.5 532.5,172.5C 532.586,174.677 533.253,176.677 534.5,178.5C 537.768,179.487 541.102,179.82 544.5,179.5C 544.5,181.167 544.5,182.833 544.5,184.5C 541.813,184.336 539.146,184.503 536.5,185C 539.399,187.277 542.066,189.777 544.5,192.5C 540.108,196.822 537.108,201.989 535.5,208C 538.242,210.637 541.575,211.804 545.5,211.5C 545.37,214.298 544.036,216.298 541.5,217.5C 537.967,216.266 534.467,214.933 531,213.5C 527.934,215.619 524.768,217.619 521.5,219.5C 519.851,218.352 518.351,217.019 517,215.5C 514.435,217.179 511.602,217.846 508.5,217.5C 508.167,215.5 507.833,213.5 507.5,211.5C 509.167,211.5 510.833,211.5 512.5,211.5C 512.5,208.167 512.5,204.833 512.5,201.5C 510.833,201.5 509.167,201.5 507.5,201.5C 507.266,207.002 506.266,212.336 504.5,217.5C 498.436,217.311 497.27,214.978 501,210.5C 503.563,199.246 504.063,187.913 502.5,176.5C 507.5,176.5 512.5,176.5 517.5,176.5C 517.334,182.176 517.501,187.843 518,193.5C 520.167,190.667 522.333,187.833 524.5,185C 522.527,184.505 520.527,184.338 518.5,184.5C 518.5,182.833 518.5,181.167 518.5,179.5C 521.85,179.665 525.183,179.498 528.5,179C 525.797,176 526.13,173.833 529.5,172.5 Z M 507.5,180.5 C 509.167,180.5 510.833,180.5 512.5,180.5C 512.5,182.5 512.5,184.5 512.5,186.5C 510.833,186.5 509.167,186.5 507.5,186.5C 507.5,184.5 507.5,182.5 507.5,180.5 Z M 527.5,185.5 C 529.364,184.207 531.364,184.207 533.5,185.5C 533.023,186.478 532.357,187.311 531.5,188C 534.042,190.711 536.709,193.211 539.5,195.5C 537.722,195.569 535.889,195.903 534,196.5C 533.562,199.376 532.562,202.043 531,204.5C 529.217,201.657 527.717,198.657 526.5,195.5C 525.549,196.326 524.549,196.492 523.5,196C 525.833,193 528.167,190 530.5,187C 529.473,186.487 528.473,185.987 527.5,185.5 Z M 507.5,191.5 C 509.167,191.5 510.833,191.5 512.5,191.5C 512.5,193.5 512.5,195.5 512.5,197.5C 510.833,197.5 509.167,197.5 507.5,197.5C 507.5,195.5 507.5,193.5 507.5,191.5 Z M 517.5,195.5 C 519.044,195.703 520.378,196.37 521.5,197.5C 523.368,201.403 525.368,205.236 527.5,209C 524.834,211.335 521.834,213.169 518.5,214.5C 517.504,208.202 517.17,201.868 517.5,195.5 Z"></path></g>
  <g><path fill="#363E4B" d="M 374.5,173.5 C 376.5,173.5 378.5,173.5 380.5,173.5C 380.5,176.833 380.5,180.167 380.5,183.5C 385.833,183.5 391.167,183.5 396.5,183.5C 396.5,190.5 396.5,197.5 396.5,204.5C 394.5,204.5 392.5,204.5 390.5,204.5C 390.5,203.5 390.5,202.5 390.5,201.5C 387.167,201.5 383.833,201.5 380.5,201.5C 380.5,207.167 380.5,212.833 380.5,218.5C 378.5,218.5 376.5,218.5 374.5,218.5C 374.5,212.833 374.5,207.167 374.5,201.5C 370.833,201.5 367.167,201.5 363.5,201.5C 363.5,202.5 363.5,203.5 363.5,204.5C 361.833,204.5 360.167,204.5 358.5,204.5C 358.5,197.5 358.5,190.5 358.5,183.5C 363.833,183.5 369.167,183.5 374.5,183.5C 374.5,180.167 374.5,176.833 374.5,173.5 Z M 363.5,187.5 C 367.167,187.5 370.833,187.5 374.5,187.5C 374.5,190.833 374.5,194.167 374.5,197.5C 370.833,197.5 367.167,197.5 363.5,197.5C 363.5,194.167 363.5,190.833 363.5,187.5 Z M 380.5,187.5 C 383.833,187.5 387.167,187.5 390.5,187.5C 390.5,190.833 390.5,194.167 390.5,197.5C 387.167,197.5 383.833,197.5 380.5,197.5C 380.5,194.167 380.5,190.833 380.5,187.5 Z"></path></g>
  <g><path fill="#363E4B" d="M 297.5,232.5 C 305.84,232.334 314.173,232.5 322.5,233C 323.319,242.089 323.819,251.256 324,260.5C 335.791,251.895 346.791,252.895 357,263.5C 363.114,272.599 365.114,282.599 363,293.5C 358.574,309.802 348.074,315.968 331.5,312C 328.438,310.939 325.938,309.106 324,306.5C 323.506,308.134 323.34,309.801 323.5,311.5C 315.16,311.666 306.827,311.5 298.5,311C 297.533,306.599 297.2,302.099 297.5,297.5C 299.833,297.5 302.167,297.5 304.5,297.5C 304.5,280.5 304.5,263.5 304.5,246.5C 302.208,246.756 300.041,246.423 298,245.5C 297.501,241.179 297.334,236.846 297.5,232.5 Z M 333.5,268.5 C 341.753,269.971 345.42,274.971 344.5,283.5C 345.272,291.974 341.605,297.307 333.5,299.5C 325.958,297.44 322.625,292.44 323.5,284.5C 322.837,276.464 326.17,271.131 333.5,268.5 Z"></path></g>
  <g><path fill="#363E4B" d="M 364.5,232.5 C 372.833,232.5 381.167,232.5 389.5,232.5C 389.334,241.839 389.5,251.173 390,260.5C 404.921,251.018 417.254,253.685 427,268.5C 431.183,278.72 431.516,289.054 428,299.5C 420.11,313.267 408.943,316.767 394.5,310C 390.594,305.143 388.927,305.643 389.5,311.5C 381.493,311.666 373.493,311.5 365.5,311C 364.533,306.599 364.2,302.099 364.5,297.5C 366.833,297.5 369.167,297.5 371.5,297.5C 371.5,280.5 371.5,263.5 371.5,246.5C 369.208,246.756 367.041,246.423 365,245.5C 364.501,241.179 364.334,236.846 364.5,232.5 Z M 400.5,268.5 C 408.244,270.263 411.91,275.263 411.5,283.5C 411.777,291.993 407.943,297.327 400,299.5C 397.169,299.042 394.836,297.708 393,295.5C 387.96,286.055 389.127,277.555 396.5,270C 398.058,269.79 399.391,269.29 400.5,268.5 Z"></path></g>
  <g><path fill="#363E4B" d="M 93.5,253.5 C 97.5138,253.334 101.514,253.501 105.5,254C 109.127,254.564 112.293,256.064 115,258.5C 115.49,257.207 115.657,255.873 115.5,254.5C 120.099,254.2 124.599,254.533 129,255.5C 129.5,263.493 129.666,271.493 129.5,279.5C 124.821,279.666 120.155,279.499 115.5,279C 111.646,269.271 104.98,266.605 95.5,271C 88.8447,279.372 88.8447,287.706 95.5,296C 99.3749,297.52 103.375,297.854 107.5,297C 111.358,294.642 114.358,291.475 116.5,287.5C 120.833,289.667 125.167,291.833 129.5,294C 130.022,294.561 130.355,295.228 130.5,296C 123.296,309.602 111.963,315.269 96.5,313C 76.8761,307.614 69.0427,294.781 73,274.5C 76.0161,263.652 82.8495,256.652 93.5,253.5 Z"></path></g>
  <g><path fill="#363E4B" d="M 218.5,253.5 C 221.119,253.232 223.619,253.565 226,254.5C 226.499,260.491 226.666,266.491 226.5,272.5C 210.364,273.036 204.031,281.37 207.5,297.5C 210.119,297.232 212.619,297.565 215,298.5C 215.499,302.821 215.666,307.154 215.5,311.5C 204.495,311.667 193.495,311.5 182.5,311C 181.533,306.599 181.2,302.099 181.5,297.5C 183.833,297.5 186.167,297.5 188.5,297.5C 188.5,287.833 188.5,278.167 188.5,268.5C 186.208,268.756 184.041,268.423 182,267.5C 181.501,263.179 181.334,258.846 181.5,254.5C 189.174,254.334 196.841,254.5 204.5,255C 205.274,257.405 205.774,259.905 206,262.5C 209.228,258.092 213.395,255.092 218.5,253.5 Z"></path></g>
  <g><path fill="#363E4B" d="M 455.5,253.5 C 479.507,252.175 491.507,263.508 491.5,287.5C 478.5,287.5 465.5,287.5 452.5,287.5C 453.954,297.568 459.62,301.068 469.5,298C 472.333,296.5 474.5,294.333 476,291.5C 480.447,293.072 484.947,294.572 489.5,296C 490.175,298.242 489.675,300.409 488,302.5C 477.039,313.447 464.206,316.28 449.5,311C 433.231,300.318 428.731,285.818 436,267.5C 440.478,259.833 446.978,255.166 455.5,253.5 Z M 459.5,267.5 C 466.91,266.264 470.91,269.264 471.5,276.5C 465.167,276.5 458.833,276.5 452.5,276.5C 453.166,272.154 455.499,269.154 459.5,267.5 Z"></path></g>
  <g><path fill="#363E4B" d="M 531.5,253.5 C 533.792,253.244 535.959,253.577 538,254.5C 538.499,260.491 538.666,266.491 538.5,272.5C 531.837,272.217 526.337,274.551 522,279.5C 520.049,285.341 519.216,291.341 519.5,297.5C 522.448,297.223 525.281,297.556 528,298.5C 528.499,302.821 528.666,307.154 528.5,311.5C 517.495,311.667 506.495,311.5 495.5,311C 494.533,306.599 494.2,302.099 494.5,297.5C 496.833,297.5 499.167,297.5 501.5,297.5C 501.5,287.833 501.5,278.167 501.5,268.5C 499.208,268.756 497.041,268.423 495,267.5C 494.501,263.179 494.334,258.846 494.5,254.5C 502.174,254.334 509.841,254.5 517.5,255C 518.274,257.405 518.774,259.905 519,262.5C 521.917,257.637 526.083,254.637 531.5,253.5 Z"></path></g>
  <g><path fill="#363E4B" d="M 19.5,254.5 C 36.0774,254.175 52.5774,254.508 69,255.5C 69.6667,259.833 69.6667,264.167 69,268.5C 59.8333,278.333 50.6667,288.167 41.5,298C 46.4889,298.499 51.4889,298.666 56.5,298.5C 56.5,295.833 56.5,293.167 56.5,290.5C 60.7675,290.203 64.9341,290.536 69,291.5C 69.4996,298.158 69.6663,304.825 69.5,311.5C 52.2563,311.825 35.0896,311.492 18,310.5C 17.3333,306.5 17.3333,302.5 18,298.5C 27.5,288.333 37,278.167 46.5,268C 41.8452,267.501 37.1785,267.334 32.5,267.5C 32.5,270.167 32.5,272.833 32.5,275.5C 28.2325,275.797 24.0659,275.464 20,274.5C 19.5004,267.842 19.3337,261.175 19.5,254.5 Z"></path></g>
  <g><path fill="#363E4B" d="M 229.5,254.5 C 238.085,254.183 246.585,254.517 255,255.5C 255.115,269.207 255.782,282.874 257,296.5C 260.97,298.646 264.637,297.979 268,294.5C 268.5,285.84 268.666,277.173 268.5,268.5C 265.5,268.5 262.5,268.5 259.5,268.5C 259.5,263.833 259.5,259.167 259.5,254.5C 268.751,254.182 277.917,254.515 287,255.5C 287.5,269.829 287.667,284.163 287.5,298.5C 289.833,298.5 292.167,298.5 294.5,298.5C 294.5,302.833 294.5,307.167 294.5,311.5C 286.16,311.666 277.827,311.5 269.5,311C 268.975,310.308 268.308,309.808 267.5,309.5C 257.412,315.694 248.245,314.694 240,306.5C 239.027,304.608 238.36,302.608 238,300.5C 237.5,289.839 237.333,279.172 237.5,268.5C 234.833,268.5 232.167,268.5 229.5,268.5C 229.5,263.833 229.5,259.167 229.5,254.5 Z"></path></g>
</svg>