<svg xmlns="http://www.w3.org/2000/svg" viewBox="0 0 1303.3 227.8">
  <title>Hotels logo</title>
<g>
	<path fill="#363E4B" d="M766,126c3.2-22.5,15-37.2,38.4-37.2c24,0,36.7,13.8,38.5,37.2H766z M805,66.7c-37.5,0-67.4,27-67.4,71.7
		c0,45.8,26.4,73.9,70.9,73.9c25.6,0,46.9-11.3,60.1-27c0.8-0.8,1.1-1.6,1.1-2.4s-0.3-1.6-1.1-2.4l-12.4-12.1
		c-0.8-0.8-1.6-1.1-2.4-1.1s-1.6,0.5-2.4,1.4c-10.2,11.1-23.5,20.5-42.6,20.5c-27.9,0-41.3-17.2-43.4-42.1h103.5
		c1.9,0,3.2-1.4,3.2-3.2v-5.4C872.1,97.5,847.3,66.7,805,66.7z"></path>
	<path fill="#363E4B" d="M447.2,19.5h-22.4c-1.9,0-3.2,1.4-3.2,3.2v75.5h-90.9V22.8c0-1.9-1.3-3.2-3.2-3.2h-22.4
		c-1.9,0-3.2,1.4-3.2,3.2V205c0,1.9,1.3,3.2,3.2,3.2h22.4c1.9,0,3.2-1.4,3.2-3.2v-81.4h90.9V205c0,1.9,1.3,3.2,3.2,3.2h22.4
		c1.9,0,3.2-1.4,3.2-3.2V22.8C450.5,20.9,449.1,19.5,447.2,19.5z"></path>
	<path fill="#363E4B" d="M921.2,19.5h-21.6c-1.9,0-3.2,1.4-3.2,3.2V205c0,1.9,1.3,3.2,3.2,3.2h21.6c1.9,0,3.2-1.4,3.2-3.2V22.8
		C924.4,20.9,923,19.5,921.2,19.5z"></path>
	<path fill="#363E4B" d="M549.2,188.6c-29.9,0-45.8-22.4-45.8-49.1c0-26.7,15.9-49.1,45.8-49.1s45.8,22.4,45.8,49.1
		C595,166.2,579.1,188.6,549.2,188.6z M549.2,66.7c-40.2,0-73.9,29.7-73.9,72.8c0,43.1,33.7,72.8,73.9,72.8
		c40.2,0,73.9-29.7,73.9-72.8S589.3,66.7,549.2,66.7z"></path>
	<path fill="#363E4B" d="M721.1,71h-35V25.4c0-2.4-2.4-3.5-4-1.9l-21.8,21.8c-1.3,1.3-2.2,2.7-2.2,4.8V71h-24c-1.9,0-3.2,1.3-3.2,3.2
		v15.1c0,1.9,1.3,3.2,3.2,3.2h24v73.6c0,25.6,12.1,42.1,37.7,42.1h25.3c1.9,0,3.2-1.3,3.2-3.2v-17.2c0-1.9-1.3-3.2-3.2-3.2h-17.8
		c-12.7,0-17.2-4.9-17.2-17.5V92.6h35c1.9,0,3.2-1.3,3.2-3.2V74.3C724.4,72.4,723,71,721.1,71z"></path>
	<path fill="#363E4B" d="M1085,196.5h-9.3c-0.9,0-1.6,0.6-1.6,1.6v8.7c0,0.9,0.6,1.6,1.6,1.6h9.3c0.9,0,1.6-0.6,1.6-1.6v-8.7
		C1086.6,197.2,1086,196.5,1085,196.5z"></path>
	<path fill="#363E4B" d="M1168.9,200.9c-8.7,0-13.1-5.9-13.1-13.7c0-7.5,4.3-13.7,13.1-13.7c8.7,0,13.1,6.2,13.1,13.7
		C1181.9,195,1177.6,200.9,1168.9,200.9z M1168.9,165.2c-12.1,0-22.4,9-22.4,22.1c0,13.4,10.3,22.1,22.4,22.1s22.4-8.7,22.4-22.1
		C1191.3,174.2,1181,165.2,1168.9,165.2z"></path>
	<path fill="#363E4B" d="M1010.4,126c-22.1-4.8-32.9-8.6-32.9-20c0-10.8,9.7-17.2,27-17.2c15.4,0,27.5,7,35.3,18.1
		c1.1,1.6,3,1.9,4.6,0.8l14.6-9.4c1.6-1.1,2.2-2.7,1.1-4.6c-11.9-18.1-30.7-27-55.3-27c-27.5,0-52,13.5-52,41
		c0,28.9,22.9,36.4,53.1,42.9c21.3,4.6,30.7,8.1,30.7,20.8c0,12.4-11.1,18.9-29.7,18.9c-19.4,0-31.8-7.6-40.4-20.2
		c-1.1-1.9-3-2.4-4.9-1.1L947,179.1c-1.6,1.1-1.9,2.7-1.1,4.3c11,18.6,31.5,29.1,60.7,29.1c36.4,0,57.4-18.1,57.4-42.3
		C1064,141.9,1040.6,132.8,1010.4,126z"></path>
	<path fill="#363E4B" d="M1246.8,165.2c-6.2,0-10.3,2.5-13.7,6.5c-2.2-3.7-6.8-6.5-12.4-6.5c-5.9,0-9.6,2.8-11.8,5.9V168
		c0-0.9-0.6-1.6-1.6-1.6h-6.2c-0.9,0-1.6,0.6-1.6,1.6v38.9c0,0.9,0.6,1.6,1.6,1.6h6.5c0.9,0,1.6-0.6,1.6-1.6v-20.2
		c0-7.8,2.2-13.1,9-13.1c5.9,0,7.8,3.4,7.8,9v24.2c0,0.9,0.6,1.6,1.6,1.6h6.5c0.9,0,1.6-0.6,1.6-1.6v-20.2c0-7.8,2.5-13.1,9.3-13.1
		c5.6,0,7.8,3.4,7.8,9v24.2c0,0.9,0.6,1.6,1.6,1.6h6.5c0.9,0,1.6-0.6,1.6-1.6v-25.5C1262.3,171.7,1256.4,165.2,1246.8,165.2z"></path>
	<path fill="#363E4B" d="M1136.2,194.4c-0.9-0.9-1.9-0.6-2.5,0c-4.3,4.7-7.2,6.5-11.8,6.5c-7.8,0-11.8-5.9-11.8-13.7
		c0-7.5,3.4-13.7,11.5-13.7c5.3,0,8.1,2.2,10.9,5.3c0.6,0.6,1.6,0.9,2.5,0.3l3.7-3.1c0.9-0.6,1.6-1.6,0.6-2.8
		c-3.4-4.7-9.3-8.1-17.7-8.1c-12.8,0-21.1,8.7-21.1,22.1s8.4,22.4,20.8,22.4c8.7,0,14.9-3.7,19-9.3c0.6-0.9,0.6-1.6,0-2.2
		L1136.2,194.4z"></path>
	<path fill="#363E4B" d="M180.9,0H46.8C21,0,0,21,0,46.8v134.1c0,25.9,21,46.8,46.8,46.8h134.1c25.9,0,46.8-21,46.8-46.8V46.8
		C227.8,21,206.8,0,180.9,0z M81.2,123c0,1.9-1.3,3.2-3.2,3.2H55.8c-1.9,0-3.2-1.3-3.2-3.2v-22.1c0-1.9,1.3-3.2,3.2-3.2h22.1
		c1.9,0,3.2,1.3,3.2,3.2V123z M130.1,172c0,1.9-1.3,3.2-3.2,3.2h-22.1c-1.9,0-3.2-1.4-3.2-3.2v-22.1c0-1.9,1.3-3.2,3.2-3.2h22.1
		c1.9,0,3.2,1.4,3.2,3.2V172z M130.1,123c0,1.9-1.3,3.2-3.2,3.2h-22.1c-1.9,0-3.2-1.3-3.2-3.2v-22.1c0-1.9,1.3-3.2,3.2-3.2h22.1
		c1.9,0,3.2,1.3,3.2,3.2V123z M186.7,55.6v108.9c0,2.1-0.8,3.5-2.1,4.9l-21.9,21.8c-1.6,1.6-4.1,0.5-4.1-1.9V69.1l-120.2,0
		c-2.4,0-3.5-2.4-1.9-4.1l21.8-21.8c1.3-1.3,2.7-2.2,4.8-2.2h108.9C180.3,41,186.8,47.5,186.7,55.6L186.7,55.6z"></path>
	<g>
		<path fill="#363E4B" d="M1302.8,166.4h-2.7c-0.5,0-0.7,0-1,0.5l-4.4,11.4l-4.6-11.4c-0.2-0.5-0.5-0.5-1-0.5h-2.7
			c-0.2,0-0.5,0.2-0.5,0.5v13.6c0,0.2,0.2,0.5,0.5,0.5h1.5c0.2,0,0.5-0.2,0.5-0.5v-11.9l4.9,11.9c0.2,0.5,0.5,0.5,1,0.5h1
			c0.5,0,0.7,0,1-0.5l4.6-11.9v11.9c0,0.2,0.2,0.5,0.5,0.5h1.5c0.2,0,0.5-0.2,0.5-0.5v-13.6C1303.3,166.6,1303.1,166.4,1302.8,166.4
			z"></path>
		<path fill="#363E4B" d="M1282.9,166.4h-11.2c-0.2,0-0.5,0.2-0.5,0.5v1.2c0,0.2,0.2,0.5,0.5,0.5h4.4v11.9c0,0.2,0.2,0.5,0.5,0.5h1.7
			c0.2,0,0.5-0.2,0.5-0.5v-11.9h4.1c0.2,0,0.5-0.2,0.5-0.5v-1.2C1283.4,166.6,1283.1,166.4,1282.9,166.4z"></path>
	</g>
</g>
</svg>