<svg xmlns="http://www.w3.org/2000/svg" viewBox="0 0 317.1 239.9">
  <title>Emirates logo</title>
  <path fill="#363E4B" d="M181.8 196.4c0 2.4 1.6 4.8 3.9 4.8 4 0 5-1.3 5.9-2.2v-16c-2 2.6-9.8 3.9-9.8 13.4zM246.2 180.9c1.7-3.1 3-10.9-2.7-10.5-6.6.5-5.3 18-5.3 18 2.2-2.4 5.6-2.9 8-7.5zM198.9 100.1c4.5 3.6 6.6-.2 3.6-4.4-1.2-1.6-5.8-1.1-7.1.3-.1 0 2.4 3.2 3.5 4.1zM160.3 79.6c-2.2-3.8-9.1-10.9-9.1-10.9s-12 12.4-12.4 12.8c-1.9 2-2.2 2.5-4 3.6h21.8c5.9 0 4.8-3.7 3.7-5.5z" class="st0"></path>
  <path fill="#363E4B" d="M.1-.1v240h317V-.1H.1zm170.6 82.3V53.5c0-4.7 2.5-8.4 3.2-9.1.8-.9 10.3-9.4 10.9-10l2.7.1c-.6.6-3.9 3.4-4.9 4.6-1 1.1-2.9 3.4-2.9 7.6v27.6c0 5.3-2.8 8.6-3.9 9.9-.9 1-9.4 8.6-10.2 9.4l-2.5-.1c.4-.4 4.8-4.4 5.6-5.1.8-1.3 2-4.2 2-6.2zm-44.8-.1c1 1.1 2 2.5 4.5 2.5 1.9 0 3.9-1.5 4.5-2.1.5-.5 14.7-15.4 14.7-15.4s-6.6-6.2-11-9.1c-2.1-1.5-4.9.4-5.4 2.2-1.3 5.9 0 14.7 0 14.7s-4.3-4.3-5.4-5.3c-2.2-2.2-2.1-7.1.5-9.6.4-.4 4.3-4.8 9.3-4.8h7.7c5.2 0 10.9 5.2 10.9 5.2s.8-.9.8-1.8c0-2.7-.1-9.9-.1-9.9-3.9-3.9-4.5-8-2.6-9.9 3.5-3.5 4.8-4.7 4.8-4.7s-.1 4.2 4 8.3c1.4 1.4 4.4 5.2 2.6 7l-4.1 4.1c-.1-.9-2.5-3.1-2.5-3.1V58c-.1 3-1.2 3.9-1.2 3.9s5.6 5.6 5.6 12.8v7.4c0 1.5-.4 2.6-1.4 3.7-.5.5-5.7 5.8-6.5 6.5-1.5 1.4-3.1 1.6-4.3 1.6h-19.4c-3.1 0-6.2-2.4-6.2-4.8.2-.4.2-7 .2-7zm-7.6-11.8c.4.2 2.7 1.1 2.7 9.7 0 0-.2 10.1-.2 10.6 0 4.4 3.5 9.4 8.5 9.4 1 0 41.3-.1 41.3-.1.1-1.1 1.1-5.3 3.1-7.6 1.1-1.3 10-9.4 11-10.2l2.6-.1c-.4.4-4.7 4.2-5.7 5.3-1.1 1.2-2.3 4.2-2.3 6.9v5.7h5.7c2.2 0 5.2-2.1 5.8-3.1.1-.1 0-5.6 0-5.6s1.4 2.1 3.1 3.2c.6-.7 5.8-7.1 10.2-7.1 7.3-.1 5.6 9.1 2.7 12.1-1 1-5.3 4.9-6.6 6.2-3.4 3.3-9.4 1.7-9.4-6.8 0 0-6.3 6-7.2 6.8-1 .8-4.2 4.2-4.2 4.2v14.9c0 7.1-2.4 9.6-4.3 11.7-.7.8-8.8 8.2-9.8 8.9l-2.6.1s4.7-4.3 5.7-5.3c1.1-1.1 2.3-3.4 2.3-7.1 0-1-.1-23.4-.1-23.4h-36.5c-12.7 0-15.5-14.1-15.5-17.9V77.6c0-2.3-1.5-6.2-3.9-7.4h3.6zm72.1 53.4c-.7-.7-4-4.2-4-4.2V108s3 2.8 3.5 3.3c.8.9 4 3.8 4 8.8V135c0 5.4-1.6 11.1-5.9 15.4-4.3 4.3-10.7 7.3-17.9 7.3h-7l-10.4-9.1h17.5c6.7 0 11.6-4.6 13.3-6.3 9.9-9.4 10-15.4 6.9-18.6zm-39.4-1.1c0 2-6.4 7.3-6.8 7.7-.5-2.2-2.1-4.5-6.8-9.3l7-7c4.7 4.8 6.6 5.7 6.6 8.6zm-14.3.1c0 2-6.4 7.3-6.8 7.7-.5-2.2-2.1-4.5-6.8-9.3l7-7c4.8 4.7 6.6 5.7 6.6 8.6zm-22.8-21.3c0 .1 2.7.1 2.7 9.8v9.5c0 11.5 10.4 18.4 18 18.2 1.3-.1 19.9-.1 20.8-.1 4.6 0 8.5-6.8 3.6-10.6-1-.8-3.4-3.4-3.4-3.4V113s2.4 2.3 3.3 3.2c1.4 1.4 4.2 3.4 4.2 8.4v5.7c0 5.9-2.1 7.7-4.1 9.9-.6.7-2.2 2.5-3.5 3.6-3.4 3.1-5.4 4.5-11.2 4.5h-9.5c-11.3 0-20.7-10.5-20.7-21.9v-17.5c0-5.4-3.9-7.6-3.9-7.6h3.7zm30.6 58.5c0 2.5-2.1 4.6-4.6 4.6-2.6 0-4.6-2.1-4.6-4.6s2.1-4.6 4.6-4.6c2.5.1 4.6 2.1 4.6 4.6zm-72 39.7c0 2.1-1.9 5.9-7.2 5.9H41.5s-3-.2-3-7.6l-.1-29.3c.1-7.3-4-10.9-4-10.9h24.1c12.3 0 13.3 8.5 13.3 8.5-5.1-3.4-10.1-3.3-16.5-3.3h-7.4c1.1 1.3 1.1 5.8 1.1 5.8v5.1h5.2c8 0 10.7 6.5 10.7 6.5-3.7-2.1-7.6-1.7-10.7-1.7-2.8 0-5.2.1-5.2.1v16c.3 2.5.1 5.4 3.6 5.4h11.2c7.1 0 8.8-3.5 8.8-3.5l-.1 3zm48.2 5.9s-3 .1-3-7.6v-18.7c.1-2.8-2.5-5.4-5.5-5.4-3.8 0-5.1 2.7-5.5 3.9v20.1c0 5 3.9 7.7 3.9 7.7h-10s-3 0-3-7.6v-18.7c.1-2.8-2.7-5.4-5.1-5.4-4.3 0-5.9 3-6 3.9v20.1c0 4.8 3.6 7.6 3.9 7.7h-10s-3-.1-3-7.6V175c0-6.2-3.5-7.6-3.5-7.6h6c6.2 0 6.4 7.1 6.4 7.1s1.9-7.4 9.7-7.4c4.1 0 9.1 2.2 10.5 7.3.8-1.8 2.7-7.2 9.1-7.2 4.8 0 11.3 2.1 11.3 10v20.4c0 5 3.8 7.6 3.8 7.6s-4.7.3-10 .3zm17.7 0s-3.1.1-3.1-7.6V175c0-6-3.5-7.6-3.5-7.6h6.1c2.1 0 6.6 0 6.6 8.5v21.8l.1.1c0 5 3.9 7.6 3.9 7.6s-4.9.1-10.1.1zm27.9 0h-10s-3-.1-3-7.6v-22.7c0-6.2-3.5-7.6-3.5-7.6h6.1c4.4 0 6 1.8 6.5 7.7 0 0 1.5-7.5 7.8-7.5 4.2 0 5.1 2.7 5.1 2.7v6.4c-2.6-3.1-7.1-3.7-10.4-1.5-1.3.8-2.2 2.2-2.5 3.9v18.6c.1 4.7 3.7 7.5 3.9 7.6zm28.3 0s-2.1-.2-2.8-4.5c-1.1 2.2-3.9 4.5-8.4 4.5-4.6 0-8.3-1.6-9.5-7.2-2.8-14 15.3-14.9 17.6-19 1.3-2.2.8-3.9.8-3.9 0-1.3-.4-3.8-5.4-3.8-5.2 0-7.3 5.3-7.3 5.3v-6.6s3.6-2.8 9.4-2.8c6 0 11.6 4 11.6 9.1v21.3c0 5 3.9 7.6 3.9 7.6h-9.9zm33.3-32.2s-2.5-1.5-5.9-1.5h-2.5v26.3c0 4.8 3.9 7.4 3.9 7.4h-10s-3.1 0-3.1-7.3v-26.4l-6.3-.1s6-2.9 8.8-5.2c4.5-3.7 6.8-7.6 6.8-7.6v8.7h8.4l-.1 5.7zm16 27.1c1.5.7 7.7 3 11.7-4l-.1 6.1s-2.5 3-10.7 3c-9.8 0-16.5-7.7-16.5-18.3 0-10.3 5.5-19.9 15.9-20 10.1-.1 15.6 8.2 8.3 15.9-5.6 5.9-10 5-13.5 9.3-.1.1.4 6 4.9 8zm25.4 5.1c-5.7 0-9.5-2.7-9.5-2.7V196s2.1 5.3 7.3 5.3c5.1 0 7.5-3.5 7.4-6.2-.1-1.9-1.1-3.9-4-5.5-2-1.1-3.7-2.2-5.2-3.2-3.7-2.7-5.6-5.6-5.6-10.1-.1-5.1 5.4-9.1 11.3-9.1 5.7 0 9.6 3 9.6 3v6.3s-2.1-5.3-7.1-5.3c-5.1 0-5.7 2.5-5.7 3.8 0 .7 1 2.8 2.9 3.9 3.3 2 7.5 4.2 9.8 7.3 1.4 1.9 2.3 4.1 2.4 6.6.2 7.5-6.7 12.7-13.6 12.7z" class="st0"></path>
</svg>