<svg xmlns="http://www.w3.org/2000/svg" viewBox="0 0 776 226.28">
  <title>My Arsenal Rewards logo</title>
  <path d="M75.85 102.72v55.48l-14.77 15.17 14.77 15.17v37.72H43.91v-42.91H31.93v42.91H0V82.57h56.29l19.56 20.16ZM43.91 158.2v-50.49H31.93v50.49h11.98ZM110.79 107.71v28.54h22.96v25.15h-22.96v39.72h29.14l-3.19 25.15H78.85V82.57h58.49v25.15h-26.55ZM234.55 226.27H207.2l-10.38-63.07-10.58 63.07h-27.35l-18.76-121.15V82.57h30.34v17.16l5.59 64.47 12.97-81.63h15.37l12.97 81.63 5.59-64.47V82.57h30.34v22.55l-18.76 121.15ZM243.53 201.32l18.56-118.75h47.31l18.56 118.75v24.95h-31.74v-19.36h-20.96v19.36h-31.74v-24.95Zm50.9-17.96-6.79-75.64h-3.59l-6.99 75.64h17.37ZM406.82 102.72v55.48l-14.77 15.17 14.77 15.17v37.72h-31.94v-42.91H362.9v42.91h-31.94V82.57h56.29l19.56 20.16Zm-31.94 55.48v-50.49H362.9v50.49h11.98ZM485.67 102.72V208.7l-19.56 17.56h-56.29V82.57h56.29l19.56 20.16Zm-31.94 98.4v-93.41h-11.98v93.41h11.98ZM564.12 155.42v53.29l-19.56 17.56h-36.73l-19.56-17.56v-34.73h31.94v27.14h11.98V164.6h-24.35l-19.56-20.16v-41.71l19.56-20.16h36.73l19.56 20.16v30.14h-31.94v-25.15h-11.98v31.73h28.35l15.57 15.97ZM69.47 72.47H56.69V22.65L38.57 72.47h-7.55L12.79 22.65v49.82H.01V0h17.62l17.11 46.6L51.85 0h17.62v72.47ZM73.39 0h13.39v7.95l16.51 23.15L120.1 7.95V0h13.29v11.07l-23.65 33.21v28.18H97.26V44.38L73.39 11.07V0ZM158.25 61.9 177.78 0h18.92l19.53 61.9v10.57h-13.89V62.2h-30.2v10.27h-13.89V61.9Zm40.87-10.17-11.17-40.86h-1.21l-11.48 40.86h23.86ZM277.03 11.57v28.48l-9.06 9.26 9.06 9.36v13.79h-13.69V62.09l-10.67-10.57h-17.92v20.93h-13.49V0h44.49l11.27 11.57Zm-16.71 28.78 3.22-3.32V15l-3.72-3.82h-25.06v29.19h25.57ZM338.84 39.25v22.24l-11.27 10.97h-34.73l-11.17-10.97V47.1h13.49v10.37l3.62 3.82h22.85l3.72-3.82V43.58l-3.02-3.12h-29.39l-11.27-11.57V11.57L292.83 0h34.73l11.27 11.57v12.68h-13.49V14.9l-3.72-3.72h-22.85l-3.72 3.72v10.67l3.62 3.72h30.5l9.66 9.96ZM357.56 11.17v16.11h31v11.17h-31V61.3h35.33l-1.31 11.17h-47.51V0h47.31v11.17h-33.82ZM440.2 46.5V0h12.68v72.47h-8.15L409.1 23.25v49.22h-12.68V0h11.17l32.61 46.5ZM457.51 61.9 477.04 0h18.92l19.53 61.9v10.57H501.6V62.2h-30.2v10.27h-13.89V61.9Zm40.87-10.17-11.17-40.86H486l-11.47 40.86h23.86ZM534.02 61.29h30.1l-1.31 11.17h-42.28V0h13.49v61.29ZM702.2 225.7c-1.66 0-3-1.39-3-3.17s1.34-3.15 2.99-3.15h.02c1.66 0 2.99 1.41 2.99 3.17s-1.33 3.17-2.99 3.15Zm0-6.9h-.02c-2.04 0-3.7 1.66-3.7 3.73s1.66 3.75 3.7 3.75 3.68-1.64 3.68-3.75-1.63-3.73-3.67-3.73Z" fill="#363e4b"></path>
  <path d="M701.97 222.39h-.48v-1.41c.12-.02.27-.03.48-.03.75 0 1.01.37 1.01.73 0 .51-.46.71-1.01.71Zm.9.27v-.03c.45-.13.81-.46.81-1.01 0-.4-.13-.68-.38-.86-.25-.18-.66-.32-1.29-.32-.5 0-.83.05-1.18.1v4.17h.66v-1.79h.46c.53 0 .8.2.9.73.08.55.18.93.28 1.06h.7c-.07-.13-.17-.38-.27-1.03-.08-.61-.33-.95-.7-1.01ZM658.8 95.87h-31c-3.84 0-7.12 3.03-8.42 7.29h-3.22c-.83 0-2.07 1.01-2.07 4.05s1.24 4.05 2.07 4.05h3.22c1.3 4.25 4.58 7.26 8.41 7.26s8.96-.14 15.82-.38c2.13-9.19 7.65-17.07 15.17-22.27ZM675.76 99.81c-6.66 1-12.69 4.47-16.91 9.76l13.47 7.76c1.03-.86 2.19-1.52 3.45-1.98V99.8ZM701.08 109.57a26.59 26.59 0 0 0-16.88-9.75l-.03 15.58c1.26.46 2.38 1.07 3.41 1.93l13.5-7.76ZM691.91 127.35c3.82-1.04 7.85-2.04 11.92-2.9.99-.21 2.05-.44 3.15-.68-.25-2.38-.82-4.7-1.69-6.93l-13.52 7.77c.11.64.17 1.29.17 1.94 0 .26-.01.53-.03.79ZM654.65 116.87c-2.46 6.27-2.44 13.23.04 19.52l13.44-7.81c-.23-1.32-.23-2.66 0-3.98l-13.49-7.74ZM671.93 64.07c.07-3.59-2.57-5.07-4.12-5.8-1.56-.72-3.2-1.52-3.97-1.89-.71-.35-2.2-.9-2.07-2.53.13-1.56 1.9-2.3 3.83-2.3a9.4 9.4 0 0 1 4.38 1.1l.06-3.42c-.9-.33-2.36-.66-4.56-.66-1.81 0-4.11.34-5.93 1.37-2.08 1.18-3.54 3.06-3.67 5.05-.2 2.96 1.44 4.37 3.76 5.53 1.58.79 3.08 1.56 4.03 2.05 1.27.67 2.37 1.48 2.26 2.96-.11 1.5-1.5 2.51-3.87 2.51-1.96 0-4.79-1.15-6.72-2.91l-.08 4.61c1.68.84 4.43 1.34 6.92 1.34 4.32 0 9.65-1.98 9.75-7.02ZM626.15 48.16l2.69 12.78-7.21.24 4.53-13.02Zm-5.88 16.65 9.24-.24c.41 1.82 1.03 4.72 1.15 6.36h8.25c-1.01-2.37-2.34-7.4-3.15-10.86l-4.26-19.16-9.88 1.41c.24 1.42-.13 3.88-1.21 7.02-2.08 6.07-5.43 15.82-8.09 21.58h6.23c.31-1.84.83-3.72 1.71-6.12ZM683.32 51.1c1.56-.14 2.81.71 3.3 2.52.56 2.04.42 3.66-1.77 4.45l-5.04 1.94c-.13-.91-.2-1.85-.2-2.8-.03-5.24 2.79-6.02 3.71-6.11Zm1.24 20.03c4.03 0 6.47-1.43 8.47-3.54l-1.41-1.79c-1.08.85-2.74 2.11-5.47 2.05-2.89-.06-4.8-2.21-5.74-5.2l12.69-4.77c-.39-4.19-1.83-6.62-3.84-8.02-1.56-1.09-3.45-1.58-5.45-1.58-4.57 0-10.67 3.24-10.51 11.73.16 8.51 6.68 11.11 11.27 11.11ZM641.62 62.31c-.16 2.88-.32 6.01-.78 8.63h7.07c-.24-2.66-.14-5.81.02-8.69.2-3.5 1.04-5.54 2.39-6.95 1.46-1.52 3.36-1.81 4.68-1.72l.22-4.32c-1.77-.08-4.46.82-7.15 4.87.07-1.54-.08-2.93-.36-3.96l-6.16.38c.44 2.62.43 5.35.27 8.22l-.18 3.53ZM743.66 42.36l-6.37-1.03c.63 2.67.88 4.78 1.2 7.65l1.49 13.83c.32 2.88.55 5.5.53 8.12h6.9c-.61-2.62-.92-5.24-1.25-8.12l-2.5-20.45ZM726.79 68.07c-1.99.09-3.72-.97-3.79-3.52-.06-2.29 1.51-4.32 6.22-5.1l.28 3.76c.1 1.3.13 2.21.29 3.45-.68.82-1.79 1.35-3 1.41Zm8.33-9.28c-.39-5.22-2.58-8.79-11.21-8.79-1.49 0-3.67.24-5.42.63l.29 4.01c1.75-1.08 3.56-1.85 5.79-1.85s4.29.94 4.48 4.37c-2.23.25-4.31.64-6.65 1.68-2.63 1.18-5.34 3.3-5.08 6.91.28 3.99 3.3 5.73 7.09 5.73 2.86 0 4.86-1.48 5.94-2.59.2.74.48 1.48.8 2.04h5.86c-.85-2.08-1.27-4.85-1.48-7.73l-.41-4.42ZM714.13 55.49c-.15-3.89-2.38-6.19-6.13-6.19-2.05 0-4.49.66-6.57 3.29-.06-.55-.38-2.4-.77-3.21l-5.61-.26c.48 2.71.64 5.44.74 8.31l.09 5.38c.11 2.88.04 5.5-.18 8.12h7.07c-.42-2.62-.57-5.24-.68-8.12l-.16-6.21c-.08-2.2 1.56-3.61 3.26-3.63 1.96-.03 2.93 1.28 3 3.25l.23 6.59c.11 2.88.15 5.5-.07 8.12h6.8c-.42-2.62-.57-5.24-.68-8.12l-.34-7.32Z" fill="#363e4b"></path>
  <path d="M769.24 95.87H701.1c8.43 5.81 14.35 15.01 15.8 25.63l12.99-3.1c2.9-.65 4.1-2.61 4.4-4.4l32.69-2.21c-.95 4.8-2.13 9.51-3.54 14.13-4.16 13.59-10.35 26.46-18.39 38.27-7.93 11.64-17.72 22.32-29.09 31.76-10.39 8.62-22.21 16.22-35.06 22.67 12.69-8.06 23.26-16.7 32.82-26.22 10.47-10.43 19.12-21.96 25.97-34.26 6.95-12.49 11.9-26.4 14.81-40.3.23-1.1.45-2.24.66-3.41l-3.86.27c-2.34 13.22-6.71 27.45-14.36 41.83-16 30.11-37.71 47.65-56.95 60.23-18.42-12.04-39.08-28.62-54.85-56.4-1.13.34-1.82.56-3.06.89 6.54 11.14 14.6 21.6 24.19 31.14 9.56 9.52 20.13 18.15 32.82 26.22-12.85-6.45-24.66-14.05-35.05-22.67-11.38-9.44-21.16-20.13-29.09-31.76-.63-.92-1.24-1.85-1.85-2.79 11.58-1.96 24.38-6.87 36.2-13.61a37.099 37.099 0 0 1-6.02-14.42c-2.96 3.64-6.49 7.33-10.52 10.34-6.53 4.88-14.42 9.72-22.96 12.34a141.638 141.638 0 0 1-13.26-30.15c-4.28-13.97-6.46-28.84-6.38-44.18.07-13.77 3.54-38.95 8.49-58.79 4.38-1.89 8.8-3.61 13.26-5.19-4.61 19.97-8.45 41.82-9.35 56.04-1.03 16.21.39 32.01 2.91 44.06 2.39 11.42 6.17 22.85 11.29 33.49.95-.45 1.99-.96 2.94-1.47-13.55-29.14-14.33-57.09-12.9-76.58 1.05-14.24 4.87-37.05 9.59-57.06 20.44-6.67 41.75-10.05 63.59-10.05s43.14 3.38 63.57 10.04c4.73 20.02 8.55 42.83 9.59 57.07.45 6.14.69 13.12.37 20.72h3.96c.34-6.5.35-13.32-.09-20.22-.9-14.22-4.74-36.07-9.35-56.04 4.47 1.57 8.9 3.3 13.28 5.19 4.94 19.85 8.41 45.03 8.49 58.79.03 4.76-.17 9.48-.58 14.14Zm-2.65-77.4C740.26 6.68 711.29-.01 679.99-.01s-60.27 6.68-86.6 18.48c-6.07 24.57-9.33 48.4-9.41 63.22-.08 15.85 2.15 31.33 6.65 46.03 4.34 14.18 10.8 27.62 19.2 39.95 8.25 12.11 18.43 23.23 30.25 33.04 11.12 9.23 26.18 19.35 39.91 25.27 13.73-5.92 28.79-16.05 39.91-25.27 11.82-9.81 22-20.93 30.25-33.04 8.4-12.33 14.86-25.77 19.2-39.95 4.5-14.69 6.73-30.18 6.65-46.03-.08-14.82-3.34-38.66-9.41-63.22Z" fill="#363e4b"></path>
  <path d="M682.31 97.69c8.92.72 16.7 5.46 21.51 12.42l-16.51 9.52a10.069 10.069 0 0 0-5-2.89V97.69Zm23.86 16.49c4.11 8.52 3.27 17.95.1 24.61l-16.56-9.56c.52-1.89.45-3.87-.05-5.52l16.52-9.53Zm-23.63 41.28v-19.13c1.76-.46 3.32-1.39 4.57-2.63l16.57 9.57c-4.78 6.79-12.4 11.43-21.14 12.2Zm-2.59-23.73c-2.84 0-5.15-2.31-5.15-5.15s2.31-5.15 5.15-5.15 5.15 2.31 5.15 5.15-2.31 5.15-5.15 5.15Zm-22.65 12.94c-.36-.46-.72-.92-1.05-1.4l16.56-9.57c.2.2.4.39.62.57 1.13.96 2.47 1.67 3.95 2.06v19.13c-8.11-.72-15.26-4.78-20.07-10.79Zm-3.51-5.63c-3.63-7.64-3.88-16.75-.05-24.84l16.52 9.49c-.57 1.92-.55 3.93.01 5.78l-16.48 9.57Zm23.83-41.35v19.05c-1.95.46-3.68 1.48-5.01 2.89l-16.51-9.52c4.81-6.96 12.59-11.71 21.51-12.42Zm-33.11 28.9c0 19.57 15.87 35.44 35.45 35.44s35.44-15.87 35.44-35.44-15.87-35.44-35.44-35.44-35.45 15.87-35.45 35.44Z" fill="#363e4b"></path>
  <path d="M679.96 123.26c-1.83 0-3.32 1.49-3.32 3.32s1.49 3.32 3.32 3.32 3.32-1.49 3.32-3.32-1.49-3.32-3.32-3.32Z" fill="#363e4b"></path>
</svg>