<svg xmlns="http://www.w3.org/2000/svg" viewBox="0 0 324.29 157.95">
  <title>PRIME Hydration logo</title>
  <path fill="#363E4B" d="M251.23 0c-.03.4-.08.8-.08 1.2V135.65h-21.92V57c-.06 0-.11 0-.17-.01-3.92 26.2-7.83 52.39-11.76 78.65h-9.17c-4.02-26.32-8.03-52.62-12.05-78.92h-.13v78.92h-21.2V1.14c0-.38-.02-.76-.03-1.13h29.99c.13 1.04.26 2.09.4 3.13.94 6.95 1.89 13.9 2.83 20.86.89 6.58 1.77 13.16 2.66 19.73.9 6.66 1.8 13.31 2.71 19.97.18 1.32.37 2.63.55 3.95.37-1.29.55-2.58.73-3.87l2.52-18.61 2.52-18.61c.84-6.15 1.68-12.3 2.51-18.45.36-2.7.7-5.4 1.05-8.11h28.04ZM69.05 0v135.63h24.31V77.61c2.5.1 4.92.1 7.33.33 2.06.2 3.32 1.53 3.67 3.55.26 1.51.4 3.05.41 4.58.03 13.13.02 26.27.02 39.4 0 1 .02 2 .11 2.99.2 2.21.51 4.39 1.55 6.41.3.58.66.79 1.32.78 7.51-.03 15.02-.02 22.53-.02h1.05c-.13-.52-.16-.96-.34-1.31-.83-1.66-1.33-3.42-1.51-5.26-.14-1.48-.24-2.96-.24-4.44-.03-15.67 0-31.35-.09-47.02-.03-5.08-1.94-9.44-6.02-12.64-1.24-.97-2.67-1.69-4-2.52.03-.02.15-.09.26-.15 3.03-1.4 5.39-3.56 7.14-6.38 2.1-3.37 2.99-7.1 3.01-11.03.03-7.3.04-14.59 0-21.89-.01-1.99-.14-4-.4-5.97-1.15-8.75-6.64-14.63-15.23-16.41-1.18-.23-2.37-.4-3.55-.61H69.05Zm24.33 20.85c2.63.11 5.22.07 7.78.36 2.04.23 3.06 1.56 3.37 3.79.16 1.12.24 2.26.25 3.39.02 6.24.03 12.48 0 18.72 0 1.26-.12 2.54-.38 3.77-.57 2.75-2.12 4.1-4.93 4.26-1.99.11-3.99.02-6.08.02V20.85ZM0 0v135.63h24.31V81.37h.95c3.38 0 6.75.08 10.13-.03 2.26-.07 4.54-.21 6.75-.63 7.01-1.32 11.99-5.26 14.77-11.89 1.88-4.48 2.5-9.21 2.53-14.01.06-9.73.05-19.46 0-29.18-.02-3.73-.3-7.44-1.25-11.08-1.1-4.19-3.07-7.83-6.68-10.41-2.67-1.91-5.69-2.93-8.88-3.5C41.12.39 39.6.22 38.09 0H0Zm24.33 20.88c2.33.14 4.63.1 6.86.46 2.22.37 3.39 2.14 3.64 4.86.09.97.14 1.94.14 2.91.01 7.59.02 15.19 0 22.78 0 1.02-.11 2.05-.29 3.06-.46 2.52-1.99 3.99-4.55 4.19-1.9.15-3.82.03-5.81.03V20.88ZM262.09 0c0 .3-.03.59-.03.89v134.75h51.93v-24.43h-27.61V77.85h20.69V53.38h-20.69V23.9h26.35V1.04c0-.35.05-.69.08-1.04h-50.73ZM139.55 0c0 .38.03.76.03 1.13v134.52h24.28V0h-24.31Zm90.44 157.95c.22-.06.44-.14.67-.17 3.36-.46 4.84-1.97 5.11-5.2.25-2.94-1.31-5.05-4.17-5.65-2.08-.44-4.18-.45-6.28-.13-2.74.42-4.24 1.72-4.67 4.01-.11.6-.1 1.24-.09 1.86.02 2.48 1.27 4.12 3.67 4.8.72.2 1.46.33 2.19.49h3.57Zm-5.2-2.59c-1.05-.33-1.55-1.19-1.63-2.29-.21-3.07.64-4.17 3.74-4.37 1.42-.09 2.9.07 4.3.37 1.34.29 1.89 1.24 1.94 2.63.1 2.89-.8 3.92-3.67 4.15-.46.04-.91.06-1.37.09l-.03.14c-1.1-.23-2.22-.39-3.28-.72Zm-110.87 2.21c2.23-.12 3.63-1.43 4.01-3.38.19-.99.24-2.05.13-3.05-.3-2.62-1.66-4.03-4.3-4.19-3.06-.18-6.14-.1-9.21-.13-.04 0-.08.06-.15.11v10.68c3.23 0 6.38.12 9.52-.04Zm-6.92-8.55c2.13 0 4.23-.12 6.31.04 1.47.11 2.14 1.08 2.21 2.54.14 3.08-.79 4.05-3.89 4.05H107v-6.63Zm24.2 8.64h2.54v-3.9c1.54 0 2.98-.02 4.43.02.2 0 .45.26.59.46.71.98 1.39 1.99 2.1 2.97.15.2.38.45.59.47.85.05 1.7.02 2.72.02-1-1.44-1.9-2.73-2.82-4.05.13-.07.22-.12.31-.17 1.64-.74 2.3-1.98 2.06-3.87-.19-1.52-1.2-2.5-2.95-2.73-.85-.11-1.72-.1-2.58-.1-2.32-.01-4.63 0-7.01 0v10.87Zm2.58-8.94c2.11 0 4.18-.04 6.25.02.79.03 1.11.66 1.14 1.43.03.91-.28 1.45-1.01 1.62-.44.1-.91.13-1.36.13-1.64.01-3.28 0-5.01 0v-3.21Zm127.95-1.87h-2.38v8.51c-2.3-2.8-4.44-5.41-6.59-8-.18-.22-.42-.52-.65-.53-1.09-.06-2.19-.03-3.29-.03v10.84h2.37v-8.47c.37.44.6.7.82.96 1.94 2.36 3.87 4.72 5.81 7.07.16.2.39.47.6.48 1.1.05 2.2.02 3.31.02v-10.85Zm-198.94 4.09h-7.68v-4.09h-2.54v10.79h2.57v-4.52h7.68v4.52h2.56v-10.82h-2.59v4.12Zm96.18 5.11c.09-.17.2-.32.26-.5.15-.46.47-.57.93-.56 1.81.02 3.61.04 5.42 0 .61-.02.93.18 1.15.73.22.55.52 1.07.82 1.57.11.18.34.38.52.39.74.04 1.48.02 2.31.02-.1-.25-.14-.37-.2-.48-1.73-3.32-3.45-6.64-5.21-9.95-.13-.24-.52-.44-.8-.46-.72-.07-1.46.02-2.18-.03-.52-.04-.77.18-.99.61-.87 1.7-1.76 3.39-2.65 5.09-.88 1.69-1.77 3.38-2.69 5.14q2.34.32 3.31-1.56Zm3.96-7.6c.83 1.59 1.6 3.06 2.4 4.61h-4.81c.82-1.58 1.59-3.05 2.41-4.61Zm16.45-1.6v2.06h5.25v8.73h2.58v-8.79h5.16v-2h-12.99Zm-94.81 4.1c-1.17-1.27-2.36-2.52-3.55-3.77-.16-.16-.38-.36-.58-.37-.9-.04-1.8-.02-2.85-.02.22.26.31.38.42.5 1.71 1.8 3.4 3.62 5.13 5.4.44.46.66.92.63 1.57-.05 1.12-.01 2.25-.01 3.37h2.59c0-1.27-.03-2.45.02-3.64.02-.39.18-.85.43-1.14 1.55-1.83 3.15-3.63 4.73-5.44.14-.16.26-.35.46-.62-.62 0-1.08.05-1.53-.01-.84-.11-1.4.21-1.92.86-1.06 1.32-2.21 2.58-3.48 4.04-.19-.28-.31-.53-.49-.72Zm120.44 6.69h2.47v-10.82h-2.47v10.82Z"></path>
  <path fill="#363E4B" d="M322.29 133.91h-.75q-.46-1.59-1.69-1.5c-.03.46-.06.94-.09 1.47-.21.02-.4.03-.66.06v-3.98c.74 0 1.49-.1 2.21.02 1.05.19 1.19 1.2.46 1.96.18.68.34 1.27.53 1.97Zm-2.45-2.14c.56-.02 1.1.17 1.45-.34.11-.16.1-.55-.01-.66-.39-.37-.89-.39-1.44-.25v1.25Z"></path>
  <circle stroke="#3d3d3d" stroke-width=".5px" stroke-miterlimit="10" cx="320.59" cy="131.92" r="3.45" style="fill:none;"></circle>
</svg>