<svg width="22" height="21" viewBox="0 0 22 21" fill="none" preserveAspectRatio="xMidYMid meet" xmlns="http://www.w3.org/2000/svg"><title>Add to playlist</title><path d="M1.57143 0C1.15466 0 0.754961 0.173839 0.460261 0.483274C0.165561 0.792709 0 1.21239 0 1.65C0 2.08761 0.165561 2.50729 0.460261 2.81673C0.754961 3.12616 1.15466 3.3 1.57143 3.3C1.9882 3.3 2.3879 3.12616 2.6826 2.81673C2.9773 2.50729 3.14286 2.08761 3.14286 1.65C3.14286 1.21239 2.9773 0.792709 2.6826 0.483274C2.3879 0.173839 1.9882 0 1.57143 0ZM6.28571 0.825C6.1816 0.823454 6.07823 0.843651 5.98161 0.884417C5.88499 0.925184 5.79705 0.985706 5.72291 1.06247C5.64876 1.13923 5.58988 1.2307 5.54969 1.33156C5.5095 1.43242 5.48881 1.54067 5.48881 1.65C5.48881 1.75933 5.5095 1.86758 5.54969 1.96844C5.58988 2.0693 5.64876 2.16077 5.72291 2.23753C5.79705 2.31429 5.88499 2.37482 5.98161 2.41558C6.07823 2.45635 6.1816 2.47655 6.28571 2.475H19.6429C19.747 2.47655 19.8503 2.45635 19.947 2.41558C20.0436 2.37482 20.1315 2.31429 20.2057 2.23753C20.2798 2.16077 20.3387 2.0693 20.3789 1.96844C20.4191 1.86758 20.4398 1.75933 20.4398 1.65C20.4398 1.54067 20.4191 1.43242 20.3789 1.33156C20.3387 1.2307 20.2798 1.13923 20.2057 1.06247C20.1315 0.985706 20.0436 0.925184 19.947 0.884417C19.8503 0.843651 19.747 0.823454 19.6429 0.825H6.28571ZM1.57143 6.6C1.15466 6.6 0.754961 6.77384 0.460261 7.08327C0.165561 7.39271 0 7.81239 0 8.25C0 8.68761 0.165561 9.10729 0.460261 9.41673C0.754961 9.72616 1.15466 9.9 1.57143 9.9C1.9882 9.9 2.3879 9.72616 2.6826 9.41673C2.9773 9.10729 3.14286 8.68761 3.14286 8.25C3.14286 7.81239 2.9773 7.39271 2.6826 7.08327C2.3879 6.77384 1.9882 6.6 1.57143 6.6ZM6.28571 7.425C5.85121 7.425 5.5 7.79378 5.5 8.25C5.5 8.70622 5.85121 9.075 6.28571 9.075H12.0604C13.2743 8.04457 14.8178 7.425 16.5 7.425H6.28571ZM16.5 9.075C13.4624 9.075 11 11.6606 11 14.85C11 18.0394 13.4624 20.625 16.5 20.625C19.5376 20.625 22 18.0394 22 14.85C22 11.6606 19.5376 9.075 16.5 9.075ZM16.5 11.55C16.9337 11.55 17.2857 11.9188 17.2857 12.375V14.025H18.8571C19.2909 14.025 19.6429 14.3938 19.6429 14.85C19.6429 15.3062 19.2909 15.675 18.8571 15.675H17.2857V17.325C17.2857 17.7812 16.9337 18.15 16.5 18.15C16.0663 18.15 15.7143 17.7812 15.7143 17.325V15.675H14.1429C13.7091 15.675 13.3571 15.3062 13.3571 14.85C13.3571 14.3938 13.7091 14.025 14.1429 14.025H15.7143V12.375C15.7143 11.9188 16.0663 11.55 16.5 11.55ZM1.57143 13.2C1.15466 13.2 0.754961 13.3738 0.460261 13.6833C0.165561 13.9927 0 14.4124 0 14.85C0 15.2876 0.165561 15.7073 0.460261 16.0167C0.754961 16.3262 1.15466 16.5 1.57143 16.5C1.9882 16.5 2.3879 16.3262 2.6826 16.0167C2.9773 15.7073 3.14286 15.2876 3.14286 14.85C3.14286 14.4124 2.9773 13.9927 2.6826 13.6833C2.3879 13.3738 1.9882 13.2 1.57143 13.2ZM6.28571 14.025C5.85121 14.025 5.5 14.3938 5.5 14.85C5.5 15.3062 5.85121 15.675 6.28571 15.675H9.47461C9.44554 15.4036 9.42857 15.1288 9.42857 14.85C9.42857 14.5711 9.44554 14.2964 9.47461 14.025H6.28571Z" fill="currentColor"></path></svg>