<svg xmlns="http://www.w3.org/2000/svg" viewBox="0 0 160 65">
  <title>Visit Rwanda logo</title>
  <path fill="#363E4B" fill-rule="evenodd" d="M49 30.1L40.4 9.3h5.8L51.1 22l5-12.6h5.8l-8.7 20.7H49zM70.5 9.3h-5.3V30h5.3V9.3zM90 23.2c0-1.4-.3-2.6-1.3-3.7-1.1-1.2-2.4-1.6-3.7-2l-1.7-.5c-1.3-.4-1.6-.7-1.8-.9-.2-.3-.3-.6-.3-.9 0-.5.2-.8.5-1.1.5-.5 1.2-.6 1.7-.6.7 0 1.9.1 3.5 1.4l2.1-4.2c-1.9-1-4.3-1.7-6.3-1.7-2.5 0-4.2.9-5.2 1.9-.9.9-1.9 2.4-1.9 5 0 1.1.1 2.5 1.2 3.6.8.9 2.1 1.4 2.9 1.7l1.4.4c1.3.4 2.1.6 2.6 1.1.4.4.6.8.6 1.2 0 .5-.2 1-.5 1.3-.3.4-1 .7-2 .7-1.8 0-3.5-1-4.7-2.1l-2.3 4.3c1.5 1 2.7 1.5 3.1 1.6 1.5.6 2.7.7 4 .7 2.2 0 4.3-.3 6-2.1 1.6-1.4 2.1-3.2 2.1-5.1zm10.1-13.9h-5.3V30h5.3V9.3zm8.9 20.8h5.4V13.9h4.4V9.3h-14.2v4.6h4.4v16.2zM22.6 47.6l6.4 8.5h-6.6l-5.1-8v8H12V35.3h8.3c1.5 0 3.5.2 5 1.8 1.2 1.2 1.8 3 1.8 4.7 0 1.8-.6 3.3-1.6 4.3-.9.8-2 1.3-2.9 1.5zm-1-5.5c0-.6-.2-1.3-.7-1.7-.5-.5-1.4-.8-2.6-.8h-1v5.1h1c.8 0 1.9-.2 2.6-.8.4-.5.7-1.2.7-1.8zm33.1-6.8l-3.9 13.4-4-13.4h-4.3l-4.3 13.4-3.6-13.4H29L35.1 56h5.4l3.9-12 3.7 12h5.5l6.6-20.7h-5.5zm12.7 0L59.5 56h5.7l1.4-3.5c-.5 0-.4 0 0 0 .6-1.5 1.1-2.9 1.5-4.1v-.1l2.2-6.6 2.3 6.7.3.9c.4 1 .7 2.2 1.1 3.2.4 0 .4 0 0 0l1.3 3.4H81l-7.8-20.7h-5.8zM98.8 48l-9.9-12.7h-5.4V56h5.4V43.4l9.9 12.7h5.4V35.3h-5.4V48zm24.5-9.8c2.4 2.3 2.8 5.3 2.8 7.5 0 2.7-.7 5.2-2.7 7.2-1.6 1.6-4.3 3.1-7.8 3.1h-7.4V35.3h6.9c2.1 0 5.5.3 8.2 2.9zm-2.7 7.5c0-1.9-.6-3.6-1.6-4.5-1.3-1.2-2.9-1.3-4.2-1.3h-1.3v11.6h1.1c1.3 0 3.1-.1 4.5-1.5.6-.6 1.5-2 1.5-4.3zm-46.5 9.7c-.1-.2-.3-.5-.5-.5-.2-.1-.3-.4-.5-.7-.1-.2-.2-.4-.3-.5-.1-.1-.1-.2-.2-.4-.1-.3-.2-.7-.3-.9-.2-.3-.4-.7-.5-1-.1-.1-.2-.3-.2-.5-.1-.6-.3-1.1-.3-1.8 0-.2-.1-.3-.1-.5v-.2-.2c-.1-.3-.3-.3-.4-.3-.1 0-.2 0-.2.1 0 0-.1.1-.1.2V48.5c0 .2-.1.3-.1.4-.1.2-.1.4-.2.6-.1.1-.1.3-.2.5 0 .1-.1.2-.1.3-.1.1-.2.3-.2.6 0 .2-.1.3-.1.5 0 .1-.1.2-.1 0 0-.3-.1-.5-.2-.7 0-.1 0-.1-.1 0-.1.2-.3.4-.4.5 0 0-.1.1-.1.2-.1.3-.1.7-.2 1-.1.4-.3.8-.4 1.1-.2.3-.4.5-.5.8-.1.2-.3.5-.4.8-.1.2-.2.4-.4.4v.1h8.1c-.1-.1-.2 0-.2-.1-.5 0-.5.1-.6-.1zm66.2-20.1h-5.8L126.6 56h5.7l1.4-3.5c-.5 0-.4 0 0 0 .6-1.5 1.1-2.9 1.5-4.1v-.1l2.2-6.6 2.3 6.7.3.9c.4 1 .7 2.2 1.1 3.2.4 0 .4 0 0 0l1.3 3.4h5.7l-7.8-20.6zm.9 20.1c-.1-.2-.3-.5-.5-.5-.2-.1-.3-.4-.5-.7-.1-.2-.2-.4-.3-.5-.1-.1-.1-.2-.2-.4-.1-.3-.2-.7-.3-.9-.2-.3-.4-.7-.5-1-.1-.1-.2-.3-.2-.5-.1-.6-.3-1.1-.3-1.8 0-.2-.1-.3-.1-.5v-.2-.2c-.1-.3-.3-.3-.4-.3-.1 0-.2 0-.2.1 0 0-.1.1-.1.2V48.5c0 .2-.1.3-.1.4-.1.2-.1.4-.2.6-.1.1-.1.3-.2.5 0 .1-.1.2-.1.3-.1.1-.2.3-.2.6 0 .2-.1.3-.1.5 0 .1-.1.2-.1 0 0-.3-.1-.5-.2-.7 0-.1 0-.1-.1 0-.1.2-.3.4-.4.5 0 0-.1.1-.1.2-.1.3-.1.7-.2 1-.1.4-.3.8-.4 1.1-.2.3-.4.5-.5.8-.1.2-.3.5-.4.8-.1.2-.2.4-.4.4v.1h8.1c-.1-.1-.2 0-.2-.1-.5 0-.6.1-.6-.1z"></path>
</svg>