<svg width="24" height="24" viewbox="0 0 24 24" xmlns="http://www.w3.org/2000/svg">
  <title>Playlist</title>
  <path d="M3 0.000100009C2.86749 -0.00177407 2.73593 0.0227076 2.61296 0.0721221C2.48999 0.121537 2.37807 0.194898 2.2837 0.287944C2.18933 0.38099 2.11439 0.491864 2.06324 0.614124C2.0121 0.736383 1.98576 0.867588 1.98576 1.00012C1.98576 1.13264 2.0121 1.26385 2.06324 1.38611C2.11439 1.50837 2.18933 1.61924 2.2837 1.71229C2.37807 1.80533 2.48999 1.87869 2.61296 1.92811C2.73593 1.97752 2.86749 2.002 3 2.00013H21C21.1325 2.002 21.2641 1.97752 21.387 1.92811C21.51 1.87869 21.6219 1.80533 21.7163 1.71229C21.8107 1.61924 21.8856 1.50837 21.9368 1.38611C21.9879 1.26385 22.0142 1.13264 22.0142 1.00012C22.0142 0.867588 21.9879 0.736383 21.9368 0.614124C21.8856 0.491864 21.8107 0.38099 21.7163 0.287944C21.6219 0.194898 21.51 0.121537 21.387 0.0721221C21.2641 0.0227076 21.1325 -0.00177407 21 0.000100009H3ZM2 4.00016C1.86749 3.99829 1.73593 4.02277 1.61296 4.07218C1.48999 4.1216 1.37807 4.19496 1.2837 4.28801C1.18933 4.38105 1.11439 4.49193 1.06324 4.61418C1.0121 4.73644 0.985758 4.86765 0.985758 5.00018C0.985758 5.1327 1.0121 5.26391 1.06324 5.38617C1.11439 5.50843 1.18933 5.6193 1.2837 5.71235C1.37807 5.80539 1.48999 5.87876 1.61296 5.92817C1.73593 5.97758 1.86749 6.00207 2 6.00019H22C22.1325 6.00207 22.2641 5.97758 22.387 5.92817C22.51 5.87876 22.6219 5.80539 22.7163 5.71235C22.8107 5.6193 22.8856 5.50843 22.9368 5.38617C22.9879 5.26391 23.0142 5.1327 23.0142 5.00018C23.0142 4.86765 22.9879 4.73644 22.9368 4.61418C22.8856 4.49193 22.8107 4.38105 22.7163 4.28801C22.6219 4.19496 22.51 4.1216 22.387 4.07218C22.2641 4.02277 22.1325 3.99829 22 4.00016H2ZM2 8.00022C0.895 8.00022 0 8.89524 0 10.0003V22.0004C0 23.1055 0.895 24.0005 2 24.0005H22C23.105 24.0005 24 23.1055 24 22.0004V10.0003C24 8.89524 23.105 8.00022 22 8.00022H2ZM10 12.0003C10.204 12.0003 10.383 12.0769 10.541 12.1819L15.5469 15.1859C15.8139 15.3659 16 15.6543 16 16.0003C16 16.3463 15.8139 16.6348 15.5469 16.8148L10.541 19.8188C10.383 19.9238 10.204 20.0004 10 20.0004C9.448 20.0004 9 19.5524 9 19.0004V13.0003C9 12.4483 9.448 12.0003 10 12.0003Z" fill="#fff"/>
</svg>
