<svg xmlns="http://www.w3.org/2000/svg" viewBox="0 0 433.08 156.75">
  <title>Sobha Realty</title>
  <path d="M216.28,40.85c7.8-2.86,13.18-8.38,13.18-17.15,0-13.54-12.38-19.36-28.1-19.36H183.47V88.71h23.4c17.7,0,33-7.17,33-23.44,0-12.86-9.59-21.69-23.64-24.42M205.75,84h-9.9V9.06h6.5c11.64,0,15.54,5.66,15.54,14.17,0,1.41.94,15.33-10.5,17.86a30.37,30.37,0,0,1,12.75,6.57c4.57,3.79,6.72,9.65,6.72,16.39,0,11.8-6.5,19.94-21.11,19.94" fill="#363E4B"></path>
  <path d="M5.88,85.89c5.75,3,13.08,4.27,19.37,4.27,10.9,0,30.12-3.91,30.12-23,0-13.4-9.69-20.94-25.65-31.76C22.34,30.1,12.28,24.8,12.28,16.17,12.28,9,18.92,4.7,28.1,4.7a34.71,34.71,0,0,1,18.17,5.52L41.72,2.29C38.64.56,31.84,0,28.23,0,16,0,1.81,5.15,1.81,19.67c0,11.49,9,18,24,28.72,7,5,17.9,12.79,17.9,22.42,0,9-7.06,14.66-18.42,14.66-13.31,0-23-7.91-25.31-10Z" fill="#363E4B"></path>
  <path d="M115.68,90.16c-22.57,0-40.09-18-40.09-43.63,0-25,17.52-43.64,40.09-43.64s40,18.63,40,43.64c0,25.62-17.47,43.63-40,43.63m27.66-43.63c0-22.84-11.09-38.94-27.66-38.94S88,23.69,88,46.53s11.09,38.93,27.66,38.93,27.66-16,27.66-38.93" fill="#363E4B"></path>
  <path d="M409.93,63.94H377.36L367.21,88.71h-4.83L397.73,2.47l35.35,86.24h-13Zm-30.65-4.7H408l-14.37-35.1Z" fill="#363E4B"></path>
  <polygon points="326.19 4.36 326.19 39.01 280.93 39.01 280.93 4.36 268.55 4.36 268.55 88.71 280.93 88.71 280.93 43.72 326.19 43.72 326.19 88.71 338.57 88.71 338.57 4.36 326.19 4.36" fill="#363E4B"></polygon>
  <path d="M134.14,156.75h-5V131.11h12.29c5.81,0,8.74,2.81,8.74,7.27v1.39c0,3.43-2.12,6-5.59,6.89l6.59,10.09h-5.55l-6.19-9.67h-5.28Zm0-13.52h6.16c3.27,0,4.85-1.38,4.85-3.58v-1c0-2.31-1.35-3.54-4.66-3.54h-6.35Z" fill="#363E4B"></path>
  <polygon points="182 131.11 182 135.26 167.56 135.26 167.56 141.77 178.81 141.77 178.81 145.7 167.56 145.7 167.56 152.59 182 152.59 182 156.75 162.67 156.75 162.67 131.11 182 131.11" fill="#363E4B"></polygon>
  <path d="M208.11,151.4H196.75l-2,5.35H189.7l10.05-25.84h5.54l10.06,25.84h-5.24Zm-9.94-3.78h8.51l-4.23-11.24h-.08Z" fill="#363E4B"></path>
  <polygon points="231.06 131.11 231.06 152.4 243.89 152.4 243.89 156.75 226.06 156.75 226.06 131.11 231.06 131.11" fill="#363E4B"></polygon>
  <polygon points="271.49 131.11 271.49 135.42 262.79 135.42 262.79 156.75 257.79 156.75 257.79 135.42 249.12 135.42 249.12 131.11 271.49 131.11" fill="#363E4B"></polygon>
  <polygon points="285.05 131.11 291.82 142.66 298.52 131.11 303.95 131.11 294.17 146.93 294.17 156.75 289.17 156.75 289.17 146.93 279.42 131.11 285.05 131.11" fill="#363E4B"></polygon>
</svg>