<svg xmlns="http://www.w3.org/2000/svg" viewBox="0 0 841.89 335.67">
    <title>Persil logo</title>
    <path d="M62.21,0c.41.29.58.78.83.83a32.25,32.25,0,0,1,16,8.37,36.81,36.81,0,0,1,9.07,13.92c2.94,7.58,5.53,15.31,8.09,23,3,9.1,5.78,18.29,8.8,27.39,3.54,10.68,8.09,20.89,14.62,30.13,5.78,8.18,13.23,14.18,23,16.67a40.11,40.11,0,0,0,14.06.72c8.79-.89,16.76-4.14,24.75-7.47a14.53,14.53,0,0,1,2.88-.54c-1,2.93-2.08,5.47-2.75,8.12a100.78,100.78,0,0,0-2.09,10.6,40.32,40.32,0,0,0-.42,8.28c.37,5.11.9,10.22,1.71,15.28a148,148,0,0,0,3.49,17.55A76.16,76.16,0,0,0,198.85,200a107.65,107.65,0,0,0,21,19.61c8.08,5.78,16.26,11.43,24.43,17.09s16.46,11.12,24.49,16.94c3,2.22,5.55,5.2,8.35,7.88-.05,0,0,0,.08,0a.76.76,0,0,0,.14-.16c.1-.1.25-.19.28-.31a2.28,2.28,0,0,0,0-.64V65.1c.63,0,1.18-.1,1.73-.1,20.73,0,41.47-.29,62.19.1a54.94,54.94,0,0,1,32,11.13,58.07,58.07,0,0,1,18.88,23.34c2.43,5.39,4.29,11,4.42,17,.28,12.44.39,24.89.46,37.34.07,13.27.11,26.54,0,39.81a55,55,0,0,1-11,32.64,57,57,0,0,1-30.11,21.22,51.68,51.68,0,0,1-15.26,2.48h-20.2v85.45c-14.21.2-28.43.2-42.84,0-.2-14.53-.2-28.86-.2-43.4a6.07,6.07,0,0,0-1.77.44c-5.13,3.46-10.7,3.17-16.39,2A47.69,47.69,0,0,1,241.9,287c-4.39-3-8.85-6.31-12.19-10.38-6.83-8.31-11.75-17.93-16.65-27.5-7-13.62-13.36-27.57-22.41-40-4.13-5.68-8.38-11.24-14.47-15.11s-12.28-6.77-19.6-6.75a25.57,25.57,0,0,0-13,3.43c-3.53,2.06-7.59,4-9.88,7.17-3.4,4.67-5.77,10.19-8,15.6A94.32,94.32,0,0,0,120,235.5c-1,6.75-2.27,13.47-3.39,20.2-1.17,6.95-1.9,14-3.56,20.81a152.56,152.56,0,0,1-6.66,20.87,49.18,49.18,0,0,1-15.1,20.3,32.86,32.86,0,0,1-8.8,5.43c-5.49,2-11.36,2-17.11,1-8.2-1.44-13.67-6.4-16.75-14C46,303.54,46,296.67,46.9,289.75a56.2,56.2,0,0,1,4.61-15.67c3.86-8.83,10.52-15.29,17.8-21.25,5.39-4.42,10.7-8.91,16-13.41s10.46-9,15.7-13.53a87.38,87.38,0,0,0,14.84-15.72c3.83-5.46,6.5-11.42,6.31-18.18-.17-6.34-2.82-11.91-6.36-17.11-3.9-5.74-9.17-8.74-16.15-8.75a42.18,42.18,0,0,0-15.23,3.3c-10.09,3.91-20,8.4-29.9,12.65-5.59,2.38-11.09,5-16.77,7.1-7.5,2.79-15.1,5.35-23.37,4.1-6.46-1-10.76-4.48-13.15-10.51A7,7,0,0,0,0,181.2c0-3.3,0-6.61.17-10.13a3.92,3.92,0,0,0,.68-.93,18.18,18.18,0,0,1,7.82-10.39c7.66-5,16.38-6.79,25.41-6.91,6.12-.08,12.26.17,18.38.42,3.17.12,6.32.53,9.47.84,5.74.56,11.46,1.33,17.22,1.65,4.93.28,9.89.17,14.83,0a33.51,33.51,0,0,0,7.48-1,19.14,19.14,0,0,0,13.21-24.56c-3.33-9.89-9.8-17.44-16.78-24.69a135.39,135.39,0,0,0-10.16-9c-4.28-3.63-8.63-7.19-13-10.79C67.83,80,60.6,74.45,54,68.25A109.13,109.13,0,0,1,41.38,53.52a42.47,42.47,0,0,1-8.64-27.13c.07-2.08.55-4.15.83-6.23C34.85,10.74,40.08,3.26,50.16.83c.26-.06.42-.54.63-.83H62.21M355.09,188.72V124a9.44,9.44,0,0,0-.08-1.92c-1.76-8.25-9.44-14.62-17.76-14.1-5.48.34-11,.06-16.5.06v99.43c6,0,12,.24,17.87-.11a18.26,18.26,0,0,0,7.84-2.37C352.38,201.51,355.37,196.14,355.09,188.72Z" fill="#363e4b"></path><path d="M841.89,79.86c-.33.45-.78.64-1,1a9.08,9.08,0,1,1,.15-8.85,1,1,0,0,0,.7.45c.13,2.33.13,4.78.13,7.43m-14.95-.75c2.41,4.57,8.18,5,9.78,1.87-1.5.09-2.56-.19-2.68-2,0-.64-1.26-1.21-1.94-1.8l-.53.45v3.19h-2.1V71.63a42.08,42.08,0,0,1,5.08.28c2.23.38,2.85,1.93,1.84,4a1.84,1.84,0,0,0-.23,1.21c.34,1.11.81,2.17,1.25,3.31a4.19,4.19,0,0,0,1-.78,7,7,0,0,0-.38-7.47,6.62,6.62,0,0,0-7.57-2C827,71.64,825.67,74.74,826.94,79.11Z" fill="#363e4b"></path><path d="M445.48,244.43a16.81,16.81,0,1,0,33.61,1h41.16a40.23,40.23,0,0,1-1.38,14.09,56.37,56.37,0,0,1-10.28,21.35,59.18,59.18,0,0,1-49.91,22.49,55.88,55.88,0,0,1-31.37-11.54c-4-3.13-8.21-6.44-11.2-10.49a60.79,60.79,0,0,1-10.7-22.7c-1.34-5.95-1.26-11.94-1.26-18,0-21.38.12-42.75,0-64.13A56.75,56.75,0,0,1,410.78,149a57.44,57.44,0,0,1,22.76-23.23,55.49,55.49,0,0,1,20.28-6.93,59.3,59.3,0,0,1,31.9,4.26,57.23,57.23,0,0,1,20.69,15.16,54.63,54.63,0,0,1,13.07,27.2,59.92,59.92,0,0,1,.85,9.45c.08,18.29,0,36.58,0,54.87v2.52H445.48v12.11m6.76-81.29c-3.42,2.87-6.1,6.21-6.34,10.91q-.3,6-.41,11.91c-.06,3.13,0,6.25,0,9.33h33.57c0-6-.1-11.85,0-17.72.12-5.47-1.65-10-5.85-13.56C467.07,158.88,459.19,158.31,452.24,163.14Z" fill="#363e4b"></path><path d="M700.17,221.34A45.26,45.26,0,0,1,707.58,242a91.87,91.87,0,0,1,.81,12.48c-.49,11-3.81,21.1-11,29.75-7.64,9.18-17.64,14.16-29,17.08-8.3,2.14-16.77,2.12-25.16,1.58a51.55,51.55,0,0,1-28.52-10.38c-7.23-5.52-12.13-12.85-15.63-21.19A78.09,78.09,0,0,1,594,251.66c-.46-3.28-.39-6.63-.56-10.08H631.7a28.52,28.52,0,0,0,4.86,14.35,17.44,17.44,0,0,0,14.74,7.95c4.14.12,8.21-.17,11.78-2.33,6.2-3.75,7.47-10.1,4.37-16.88-2.45-5.34-6.7-9.17-11.58-12.23-8.59-5.38-18-9.14-27.23-13.14-4.33-1.87-8.28-4.79-12.09-7.65a42.8,42.8,0,0,1-13.4-17.23,46.34,46.34,0,0,1-4-16.07c-.23-4.12-.39-8.25-.43-12.38-.06-7.23,2.37-13.86,5.87-20a61.49,61.49,0,0,1,9.16-12.18,48.55,48.55,0,0,1,24.83-13.68,96,96,0,0,1,13.09-1.75A54,54,0,0,1,681.59,125c9.34,4.93,15.94,12.57,20.41,22.1a61.27,61.27,0,0,1,5.58,19.9c.5,4.78.82,9.58,1.23,14.54H672.73a40.71,40.71,0,0,0-2.88-16c-2.86-6.67-7.62-9.64-14.41-9.61-6.35,0-11.89,2.36-14.81,8.59-2.11,4.49-1.2,9.37,1.89,13.35,4.5,5.8,11,8.76,17.35,12,5.8,2.94,11.75,5.59,17.42,8.76A50.59,50.59,0,0,1,693.57,213C695.63,215.8,697.89,218.48,700.17,221.34Z" fill="#363e4b"></path><path d="M771.73,157.53V66.41h42.92V301.17H771.73Z" fill="#363e4b"></path><path d="M528.55,250.93V125.81h43.86v9.4c13.39-13,28.56-20.64,47.24-20.35v5a82.43,82.43,0,0,0-18.45,12.53,75.5,75.5,0,0,0-18,25.1,99.76,99.76,0,0,0-6.85,21.9q-1.5,7.59-2.56,15.25a82.92,82.92,0,0,0-.87,10.55q-.33,27.38-.46,54.76c-.06,13,0,26,0,38.94v2.24h-43.9Z" fill="#363e4b"></path><path d="M762.26,199.71V301.17H719.35V125.81h42.91Z" fill="#363e4b"></path><path d="M237.43,40c1.94.44,3.72.75,5.42,1.3,7.88,2.6,12.24,8.17,13.22,16.3,1.34,11.06-3.21,19.59-11.56,26.52-8.67,7.19-19,11-29.46,14.37-7.81,2.51-15.73,4.66-24.09,7.11,3.55-12.35,6.89-24.4,10.52-36.37,1.72-5.69,4-11.28,7.76-16,5-6.23,11.28-10.91,19.4-12.39C231.46,40.41,234.36,40.32,237.43,40Z" fill="#363e4b"></path><path d="M736.63,111.47c-3.28-1.31-6.69-2.14-9.37-4a19.18,19.18,0,0,1-8.5-15.55c-.23-5.26.6-10.16,3.91-14.4,4.07-5.22,9.26-8.36,16-8.65,6.48-.26,12.14,1.55,16.7,6.29,5.56,5.77,7.16,12.69,5.38,20.32a20.77,20.77,0,0,1-20.94,16C738.84,111.44,737.83,111.48,736.63,111.47Z" fill="#363e4b"></path><path d="M100.27,176.9c2.71-.05,4.84.72,6.21,3,1.53,2.5.73,4.94-.69,7.06a5,5,0,0,1-4.8,2c-3.28-.37-6-1.91-7.16-5.35a5.07,5.07,0,0,1,4.52-6.64C98.92,176.87,99.5,176.9,100.27,176.9Z" fill="#363e4b"></path><path d="M826.89,78.94c-1.22-4.2.08-7.3,3.59-8.84a6.62,6.62,0,0,1,7.57,2,7,7,0,0,1,.38,7.47,4.19,4.19,0,0,1-1,.78c-.44-1.14-.91-2.2-1.25-3.31a1.84,1.84,0,0,1,.23-1.21c1-2,.39-3.58-1.84-4a42.08,42.08,0,0,0-5.08-.28v9.14h2.1V77.58l.53-.45c.68.59,1.89,1.16,1.94,1.8.12,1.86,1.18,2.14,2.68,2C835.12,84.11,829.35,83.68,826.89,78.94Z"></path></svg>