<svg version="1.1" viewBox="0 0 1682.7 830.67" xmlns="http://www.w3.org/2000/svg" xmlns:xlink="http://www.w3.org/1999/xlink">
 <title>Extra Marks logo</title>
 <g stroke-width=".66667">
  <path d="m1495 805.57c-23.451-2.6732-39.594-6.9628-56.002-14.881-21.333-10.294-39.088-26.761-48.27-44.767-6.0567-11.877-10.061-27.736-10.061-39.849v-4.7531l77.561 0.34407 0.7571 3.6667c1.814 8.7854 7.8126 15.454 18.525 20.593 10.81 5.1864 21.437 7.4105 35.372 7.4032 23.467-0.0127 42.052-7.8991 48.219-20.462 1.6253-3.3111 1.8918-4.6341 1.8535-9.2005-0.1064-12.684-8.1501-21.025-24.97-25.892-7.3638-2.1309-16.61-3.4792-32.673-4.7648-15.971-1.2781-22.133-1.9965-31.978-3.728-50.821-8.9384-77.897-31.741-86.06-72.477-2.0158-10.059-2.5217-30.26-1.0148-40.513 2.9294-19.933 11.407-36.745 25.699-50.966 8.707-8.6636 17.108-14.673 28.376-20.299 15.158-7.5682 32.975-12.574 51.279-14.406 11.07-1.1084 32.411-0.46054 42.721 1.297 36.797 6.2725 65.724 23.36 82.114 48.503 8.6607 13.287 13.37 27.952 14.583 45.413l0.4747 6.8333h-76.533l-0.7724-4.0642c-0.4248-2.2353-1.58-5.715-2.5672-7.7326-10.553-21.57-54.313-26.287-78.094-8.4185-13.787 10.359-16.203 29.445-5.1301 40.518 7.2429 7.2429 19.454 11.296 42.259 14.026 4.95 0.59263 13.95 1.6736 20 2.4022 14.262 1.7175 28.279 4.1383 38.525 6.6537 42.218 10.364 63.952 30.921 70.625 66.8 1.6694 8.9763 1.6521 32.687-0.029 40.328-4.0722 18.505-11.481 31.955-25.073 45.519-19.702 19.661-48.536 32.301-82.714 36.258-8.059 0.93307-30.884 1.3129-37 0.61587zm-1451-169.24v-162.33l29 0.0948 63.55 70.619c37.027 41.146 64.023 70.619 64.684 70.619 0.65302 0 28.651-29.985 65.983-70.667l64.849-70.667h27.934v324.67h-82.667l-0.0102-71.5c-7e-3 -44.501-0.25177-71.878-0.64993-72.5-0.56864-0.88889-0.82375-0.88889-2.2959 0-0.9109 0.55-16.734 16.825-35.162 36.167l-33.505 35.167-8.0438-0.014-33.667-35.61c-18.517-19.586-34.189-35.803-34.827-36.039-0.63838-0.23601-1.4634-0.24204-1.8333-0.0134-0.44569 0.28158-0.67264 24.702-0.67264 72.382v71.961h-82.667zm358.67 156.96v-5.38l72.748-157.79c40.011-86.786 73.048-158.17 73.415-158.63 0.50134-0.62626 4.768-0.83333 17.171-0.83333 12.42 0 16.66 0.20618 17.137 0.83333 0.34858 0.45834 33.535 71.981 73.748 158.94l73.115 158.11v10.123l-79.667-0.0466-18.711-40.286-130.75-0.33986-18.842 40.34-79.367 0.3438v-5.38zm201.27-105.19c0.51746-0.96687-3.2246-10.029-17.929-43.419-10.221-23.209-18.884-42.499-19.252-42.867-0.36808-0.36809-1.0734-0.51418-1.5673-0.32465-0.96952 0.37204-37.211 84.103-37.199 85.944 4e-3 0.61106 0.3822 1.2624 0.84053 1.4473 0.45834 0.18493 17.398 0.35993 37.643 0.38893 35.039 0.05 36.841-7e-3 37.464-1.1693zm161.39-51.111v-161.67h75.693c48.578 0 78.012 0.25205 82.167 0.7036 55.197 5.9992 93.81 45.349 99.532 101.43 1.4104 13.824-0.3413 32.219-4.3997 46.199-3.7084 12.775-10.692 26.619-18.707 37.082-4.3719 5.7074-14.309 15.517-19.812 19.557-2.4603 1.8065-4.4733 3.6838-4.4733 4.1719 0 0.488 14.25 23.976 31.667 52.196l31.667 51.308v10.685l-91-0.0294-27.333-47.064c-15.033-25.885-27.734-47.482-28.223-47.994-0.73347-0.76727-4.7761-0.90007-23-0.75534l-22.11 0.1756-0.17107 47.833-0.17107 47.833h-81.325v-161.67zm149.94-6.6932c12.076-2.8464 21.351-12.175 25.826-25.973 2.5275-7.7936 2.9578-19.834 0.9896-27.691-3.6185-14.445-11.834-24.069-23.987-28.1-4.2734-1.4175-5.5844-1.4796-36.35-1.7242-17.554-0.13954-32.629-0.0749-33.5 0.1437l-1.5833 0.39739v41.543c0 22.849 0.2 41.743 0.44447 41.987 0.2444 0.24445 14.719 0.44002 32.167 0.4346 25.937-8e-3 32.501-0.19347 35.993-1.0167zm168.06 6.6932v-161.67h82v60.918c0 53.984 0.1166 61.015 1.0244 61.769 1.33 1.1038 19.563 0.45887 27.511-0.97309 13.459-2.4249 25.245-7.2886 33.296-13.74 11.41-9.1426 19.198-23.877 22.803-43.137 2.1461-11.466 2.7103-19.1 3.154-42.67l0.4172-22.167h82.634l-0.3644 26.167c-0.4021 28.882-1.2855 39.813-4.5391 56.167-7.0702 35.537-24.166 62.017-52.501 81.321-4.1989 2.8606-4.838 3.5533-4.6127 5 0.1438 0.92367 19.968 33.61 44.053 72.637l43.792 70.957v11.095l-90.968-0.3426-34.835-61.322c-19.159-33.727-35.375-62.045-36.035-62.929l-1.1996-1.6067-7.3145 0.76407c-4.023 0.4202-11.23 0.7632-16.014 0.76213-5.88 0-8.9594 0.25753-9.5 0.7982-0.6107 0.61067-0.8 15.363-0.8 62.333v61.533h-82zm363-191.27c-1.4667-0.46384-3.6268-1.3438-4.8003-1.9554-1.1735-0.61162-17.199-13.562-35.613-28.779-19.933-16.472-34.03-27.667-34.84-27.667-0.7484 0-27.32 11.739-59.048 26.086-31.728 14.347-58.89 26.516-60.36 27.042-3.5748 1.2778-11.917 1.2222-15.673-0.10459-14.659-5.1792-21.352-21.943-14.178-35.512 1.0146-1.9188 30.345-37.746 65.178-79.616 54.139-65.076 63.894-76.49 67.194-78.628 11.357-7.3594 26.719-4.0537 34.364 7.3948 1.4438 2.1622 2.9964 5.4791 3.4503 7.371 1.1372 4.7405 0.5425 12.165-1.3183 16.459-1.05 2.4228-9.3458 12.929-27.101 34.321-14.074 16.956-25.588 31.22-25.588 31.696 0 2.0063 2.533 1.2688 15.092-4.3945 7.2826-3.284 14.404-6.3389 15.825-6.7886 4.2156-1.3344 12.722-0.55903 17.083 1.557 2.1828 1.0591 12.166 8.8168 24.667 19.168 11.55 9.564 21.557 17.693 22.238 18.064 0.8542 0.46557 1.4652 0.4479 1.97-0.057 0.8331-0.83308 41.296-267.92 40.793-269.27-0.1808-0.48501-1.0468-0.7834-1.9349-0.66666-1.9483 0.25607-234.88 138.53-235.36 139.71-0.1844 0.45834-0.1743 1.2083 0.022 1.6667 0.1965 0.45833 8.9364 7.8833 19.422 16.5 23.108 18.989 26.752 22.316 28.981 26.454 6.757 12.545 1.5592 28.348-11.421 34.722-3.331 1.6359-4.4357 1.824-10.714 1.824-6.2722 0-7.3812-0.18836-10.667-1.8117-4.051-2.0017-74.011-59.449-79.773-65.505-4.5769-4.8106-6.3834-9.5321-6.3834-16.683 0-7.3471 1.7977-11.9 6.7246-17.031 3.3881-3.5284 19.508-13.272 161.1-97.369 86.533-51.397 159.13-94.437 161.33-95.644 16.195-8.8886 36.05 1.4178 37.404 19.415 0.2909 3.8663-4.3295 35.601-28.04 192.6-31.189 206.51-28.691 192.18-34.565 198.27-1.5397 1.5963-3.8785 3.596-5.1973 4.4438-5.2578 3.3802-14.333 4.5986-20.269 2.7213zm-1401.7-162.73v-161.67h200.67v72h-59.533c-45.415 0-59.723 0.18972-60.333 0.8-1.146 1.146-1.146 45.921 0 47.067 0.60926 0.60926 13.881 0.8 55.667 0.8h54.867v71.333h-54.619c-48.765 0-54.731 0.11229-55.667 1.0476-0.9196 0.9196-1.0464 4.4838-1.0374 29.167 5e-3 15.465 0.24735 28.492 0.5372 28.949 0.41295 0.65028 13.935 0.86667 62.49 1l61.963 0.17014 0.34502 71h-205.35zm234 156.75v-4.9209l6.2085-9.5791c3.4147-5.2685 27.032-41.229 52.483-79.912 30.421-46.237 46.271-70.904 46.265-72-6e-3 -1.0889-16.03-25.585-46.228-70.667-25.42-37.95-46.484-69.695-46.807-70.543s-0.58854-3.6261-0.58854-6.1717v-4.6283l83.596 0.34335 25.75 41.122c14.163 22.617 26.14 41.592 26.617 42.167 0.47675 0.57446 1.69 1.0445 2.6961 1.0445 1.6898 0 3.9031-3.2274 29.031-42.333l27.202-42.333h81.775l-0.02 11-46.387 69.333c-25.513 38.133-46.669 69.858-47.013 70.5-0.4077 0.75875-0.36633 1.6535 0.11832 2.5591 0.40986 0.76583 22.074 33.691 48.142 73.167 26.068 39.476 49.593 75.189 52.278 79.362l4.8814 7.5878v9.8341l-86.213-0.34306-30.72-50.833c-29.955-49.567-30.771-50.833-32.76-50.833-1.1221 0-2.374 0.33381-2.782 0.7418s-14.493 23.351-31.3 50.984l-30.558 50.242-85.667 0.0318zm388.67-119.95c0-96.23-0.18347-125.05-0.8-125.67-0.60408-0.60408-10.4-0.8-40-0.8h-39.2v-72h239.33v71.989l-79 0.3439-0.1684 125.5-0.1684 125.5h-79.997zm204-36.8v-161.67l73.5 2e-3c46.163 1e-3 76.352 0.26344 81.167 0.70446 33.131 3.0344 60.362 17.155 78.989 40.96 37.276 47.637 30.265 122.3-15.023 159.99-3.2725 2.7237-6.5537 5.2753-7.2914 5.6701-0.7378 0.39484-1.3414 1.2928-1.3414 1.9954s14.25 24.366 31.667 52.585l31.667 51.307v10.126l-91.444-0.34252-27.522-47.239c-15.137-25.981-27.937-47.502-28.444-47.823s-10.426-0.58907-22.042-0.59469c-18.319-9e-3 -21.258 0.12868-22.167 1.0374-0.93253 0.93254-1.0476 6.2049-1.0476 48v46.952h-80.667v-161.67zm150.58-6.6351c14.155-3.7675 24.078-16.247 26.808-33.714 0.9175-5.8724 0.4553-15.315-1.0272-20.984-3.7229-14.236-14.154-24.94-26.892-27.597-5.1653-1.0771-66.918-1.0197-68.001 0.0633-1.1556 1.1556-1.1556 81.244 0 82.4 1.2663 1.2662 64.299 1.1126 69.112-0.16843z" fill="#363E4B"></path>
 </g>
</svg>