<svg xmlns="http://www.w3.org/2000/svg" viewBox="0 0 211 91">
  <title>Lavazza logo</title>
  <path fill="#3D3D3D" d="M27.2 46.1c-.8 3.8-1.7 7.6-2.5 11.4H4.6c.1-.1.1-.1.1-.2.2-.7.4-1.3.5-2 2.3-9.8 4.5-19.6 6.8-29.4.3-1.4.6-2.7.9-4.1.1-.2.1-.3.4-.3 3.9 0 7.8 0 11.6-.1h.3c-1.9 8.3-3.7 16.5-5.6 24.7h7.6zm87.5-39.9c3.7 17 7.5 34 11.2 51.1h-13.6c-.3 0-.4-.1-.5-.4-.6-2.7-1.2-5.4-1.7-8.1 0-.2-.1-.3-.3-.3H99.5h-.2c-.6 2.9-1.2 5.9-1.8 8.8h-14c3.8-17 7.7-34.1 11.5-51.1h19.7zm-6.2 30.9c-1.2-6.4-2.4-12.7-3.5-19h-.1c-1.2 6.3-2.4 12.7-3.6 19h7.2zM205 57.3h-10.5c-.3 0-.4-.1-.5-.4-.4-1.5-.7-2.9-1.1-4.4 0-.2-.1-.3-.3-.3h-4.5-.2v5h-11c.1-12 .1-24 .2-36h20.2c2.5 12.1 5.1 24.1 7.7 36.1zm-13.8-14.2c-1.1-4.1-2.1-8.2-3.2-12.3h-.1v12.3h3.3zm-136-21.6c.1 12 .1 24 .1 36H44.4v-5.4H39.8c-.3 0-.4.1-.5.4-.4 1.6-.8 3.1-1.2 4.7-.1.2-.1.3-.4.3-3.4 0-6.8 0-10.2-.1h-.3v-.3c2.1-9.4 4.2-18.9 6.4-28.3.5-2.2 1-4.5 1.5-6.7.1-.3.2-.5.6-.5 6.4 0 12.7-.1 19-.1h.5zm-10.8 9.1c-1.2 4.1-2.3 8.2-3.5 12.3h3.5V30.6zm43.3-9.1H76.6c-.2 0-.3 0-.4.3l-5.1 22.8c-.2.6-.3 1.1-.4 1.6h-.1V21.5H59.5c-.1 11.9-.1 23.9-.2 35.8.1.1.2.1.5.1h19.3c.2 0 .3 0 .4-.3.6-2.4 1.1-4.9 1.7-7.3 1.9-8.1 3.7-16.2 5.6-24.3.3-1.3.6-2.7.9-4zm60.7 25.2h-6.3c.9-8.5 1.8-16.9 2.7-25.3h-23v.2c.6 3.6 1.2 7.1 1.8 10.7.1.4.3.5.6.5h7.1c-.8 8.2-1.6 16.3-2.4 24.5 7.3 0 14.6 0 22-.1v-.1c-.7-3.3-1.4-6.7-2-10-.1-.3-.2-.4-.5-.4zm18.6.1c.9-8.5 1.8-16.9 2.8-25.3h-23c.1.2.1.3.1.4l1.8 10.5c0 .3.2.4.5.4h7.1c-.8 8.2-1.6 16.4-2.4 24.5h21.9l-2.1-10.5H167zM142.6 83.7c.1.9-.3 1.6-1 2.2-.2.2-.4.3-.5.4h-.2c-.1-.2 0-.4.2-.5.3-.3.5-.6.6-1.1-.4-.1-.8-.2-.9-.6-.1-.3-.1-.7.2-1 .3-.3.6-.3 1-.2.4.1.6.4.6.8zm-57-.8c-.4.1-.7.4-.7.8s.2.7.6.9c.1.1.3.1.5.2-.2.3-.4.7-.7 1-.1.2-.2.3-.1.5.1 0 .1 0 0 .1.1-.1.2-.1.3-.2.6-.4 1.1-1 1.2-1.7.1-.3 0-.8-.1-1.1-.1-.4-.6-.6-1-.5zm-3-3.1c.2 2.7-1.7 4.8-4.3 4.9-2.8.2-4.8-1.6-4.9-4.4-.2-2.6 1.7-4.6 4.4-4.8s4.7 1.6 4.8 4.3zm-2.5-1.2c-.5-.9-1.2-1.3-2.1-1.3s-1.6.4-2 1.3c-.5 1-.5 2 0 3 .4.8 1.1 1.3 2 1.3s1.7-.4 2.1-1.3c.5-1 .5-2 0-3zm-36.3 1.5c0 2.7-2 4.6-4.6 4.6-2.7 0-4.6-1.9-4.6-4.6 0-2.7 1.9-4.6 4.6-4.6s4.6 1.9 4.6 4.6zm-2.6-1.6c-.4-.8-1.1-1.2-2-1.2-.9 0-1.6.4-2 1.2-.5 1-.5 2.1 0 3.1.4.8 1.1 1.2 2 1.2.9 0 1.6-.4 2-1.2.5-1 .5-2.1 0-3.1zM68 80.2c-.2-.1-.3-.2-.4-.3-1.6-1.4-3.2-2.9-4.8-4.3-.1-.1-.3-.1-.4-.2 0 .1-.1.3-.1.4V84.5h2.1v-4.7c.5.3.8.7 1.2 1 .4.3.7.7 1.1 1 .4.4.7.7 1.1 1 .4.3.7.7 1.1 1 .4.3.7.7 1.2.9v-9.1h-2c0 1.6 0 3.1-.1 4.6zm-16 .9c.7 1.1 1.3 2.2 2.1 3.4-.5 0-.9-.1-1.4 0-.7.1-1.1-.2-1.4-.8-.2-.6-.6-1.2-.9-1.8-.1-.2-.3-.4-.5-.3-.3.1-.5 0-.8 0v2.9H47v-.4V76c0-.3.1-.4.4-.4 1.2 0 2.3-.1 3.5 0 1.4.1 2.4 1.1 2.6 2.3.2 1.3-.2 2.3-1.3 3-.1 0-.1.1-.2.2 0-.1 0-.1 0 0zm-.7-2.6c0-.5-.3-.9-.9-1-.4-.1-.8-.1-1.2-.1-.1 0-.2.1-.2.2v2.3c.6.1 1.1.1 1.6-.1s.7-.7.7-1.3zm107.8 5.6c-1.2 1-3.6 1.1-4.9 0-1.3-1.1-1.1-3 .4-3.8.1-.2.1-.2.2-.2-1-.7-1.4-1.6-1.1-2.7.3-1.1 1.2-1.6 2.2-1.8.7-.1 1.5-.1 2.2.2.8.4 1.4.9 1.5 1.9.1 1-.2 1.8-1 2.4 0 0-.1 0-.1.1.1 0 .1.1.2.1 1.5.8 1.7 2.7.4 3.8zm-3.5-5.7c0 .6.4 1 1 1 .7 0 1.1-.4 1.1-1 0-.7-.4-1.1-1-1.1s-1.1.4-1.1 1.1zm2.3 3.4c-.1-.6-.5-1-1.2-1s-1.1.4-1.1 1 .5 1.1 1.1 1.1c.7 0 1.2-.4 1.2-1.1zm11.3-2.3c-.2 1.6-.9 2.9-2.2 3.9-.8.6-1.8 1.1-2.9 1.6-.3-.5-.6-1-.9-1.6 1.3-.5 2.5-1.1 3.5-2.1-.4.1-.6.2-.9.2-1.1.1-2.1-.1-2.8-1.1-.7-1-.7-2.2-.1-3.2.7-1.2 1.8-1.7 3.1-1.6 2.1.1 3.5 1.8 3.2 3.9zm-2-.8c0-.8-.5-1.4-1.2-1.4s-1.3.6-1.3 1.4c0 .8.5 1.4 1.3 1.4.6-.1 1.2-.7 1.2-1.4zm10.9 2c-.3-1.2-1.1-1.7-2.2-1.9-.5-.1-1-.1-1.5-.1v-1.3h3.1c.3 0 .4-.1.4-.4v-1c.1-.3-.1-.4-.4-.4H172.4v4.6c0 .5 0 .5.4.4.3 0 .7-.1 1-.1.6 0 1.2 0 1.7.3.4.3.6.6.6 1.1-.1.5-.4.7-.8.9-.3.1-.5.2-.8.2-.8 0-1.5-.1-2.3-.2-.1.4-.2 1-.3 1.6.6.1 1.3.2 1.9.2 1.2.1 2.3 0 3.3-.8s1.3-1.9 1-3.1zm-64.5 3.5c.1.1.2.2.2.4h-2c-.1 0-.2-.1-.2-.2-.2-.4-.3-.8-.5-1.2-.1-.2-.2-.3-.4-.3h-2.6c-.2 0-.3.1-.4.3-.1.4-.3.8-.5 1.2 0 .1-.2.2-.3.2H105c.1-.1.1-.3.2-.4 1.3-2.8 2.6-5.6 3.9-8.3l.3-.3.3.3c1.3 2.8 2.6 5.6 3.9 8.3zm-3.2-2.9l-.9-2.1-.9 2.1h1.8zm27.7 3.3H136c-.2-.5-.4-.9-.6-1.4-.1-.2-.2-.3-.4-.3h-2.6c-.2 0-.3.1-.4.3-.1.3-.3.7-.4 1-.1.3-.2.4-.5.4h-1.7c0-.1.1-.2.1-.3l3.9-8.4.3-.3.3.3 3.9 8.4c.1 0 .2.1.2.3zm-3.4-3.2c-.3-.8-.6-1.4-.9-2.2-.3.8-.6 1.4-.9 2.2h1.8zM32 75.6h-6.8c-.2 0-.4 0-.4.1v1.8h2.7v7h2v-.4-5.3c0-.4.1-.9.1-1.3h2.7c0-.6 0-1 .1-1.5 0-.3-.1-.4-.4-.4zm71.9.1h-6.7c-.2 0-.4.1-.4.2v1.7h2.7v7h2.1v-7.1c.9 0 1.8 0 2.7.1v-1.5c0-.3-.1-.4-.4-.4zm14.5-.1h-2v8.9h5.6v-1.9h-3.6v-7zm28.3.9c-.2 0-.4.1-.6.2.2.6.4 1.1.6 1.6.5-.2.9-.4 1.5-.6v6.9h2v-9.1c-.4 0-.7 0-1 .1-.8.3-1.7.6-2.5.9zm-54.6 8h2v-8.9h-2v8.9zm32.7 0h2v-8.9h-2v8.9zm-66.1-8.9h-1.3c-.4 0-.5.1-.5.5v8.5h2c0-.1 0-.2.1-.2v-8.5c0-.2-.1-.3-.3-.3z"></path>
</svg>