<svg xmlns="http://www.w3.org/2000/svg" viewBox="0 0 324.52 76">
  <title>Pixstory logo</title>
  <path d="M56.26 23.59v9.52c0 .29-.24.53-.53.53H45.59a.54.54 0 0 1-.53-.53v-9.52c0-.16.08-.31.21-.41v-.03h.05a.46.46 0 0 1 .27-.09h10.15c.29 0 .52.23.53.52ZM35.32 42.4H25.18a.54.54 0 0 0-.53.53v9.51c0 .29.24.53.53.54h10.14c.29 0 .53-.24.53-.54v-9.51a.54.54 0 0 0-.53-.53ZM79 0v76H11C4.92 76 0 71.08 0 65V11C0 4.92 4.92 0 11 0h68ZM65.76 24.67c0-3.02-.23-5.74-3.14-8.44-2-1.94-4.73-2.94-7.52-2.75H35.59v19.38h-9.14c-3.04 0-5.98.26-8.64 3.24-2.51 2.77-2.71 5.34-2.71 8.16v7.07c0 3.02.23 5.74 3.15 8.45 2 1.94 4.74 2.94 7.52 2.74h19.51V43.15h9.14c3.04-.01 5.98-.26 8.63-3.24 2.5-2.78 2.7-5.34 2.7-8.16v-7.07ZM91.22 11.7c4.03-.86 13.59-1.45 16.43-1.45 10.82 0 18.02 3.56 18.02 13.86 0 10.89-7.26 15.64-16.43 15.64-2.31 0-3.63-.33-4.29-.46v16.3H94.26v-39.2h-3.04V11.7Zm16.5 4.42c-1.32 0-2.11.07-2.77.2v17.36c.53.13 1.72.33 3.1.33 3.5 0 7-2.11 7-9.31s-3.5-8.58-7.33-8.58Zm34.78 33.26h3.43v4.55c-1.98.99-5.87 1.85-7.66 1.85-4.88 0-5.74-2.05-5.74-6.4v-18.6h-3.43v-4.55c2.24-1.19 5.61-1.85 8.18-1.85 2.38 0 5.21 1.39 5.21 4.95v20.06Zm-5.41-30.49c-2.84 0-5.28-1.65-5.28-5.54s1.78-5.54 5.28-5.54c2.84 0 5.28 1.52 5.28 5.54 0 3.76-2.44 5.54-5.28 5.54Zm39.93 35.31c-2.31 1.25-4.36 1.58-6.73 1.58-3.7 0-5.87-1.58-8.91-10.36l-4.62 10.16h-8.45l10.03-14.25-6.27-10.56h-3.23v-4.55c1.98-1.12 5.15-1.85 7.52-1.85 4.09 0 5.41 2.64 7.92 10.36l4.49-10.03h7.52l-8.91 14.45 3.7 6.01c2.24 3.76 2.77 4.49 5.94 4.49v4.55Zm3.7-.53v-6.8c3.3 2.18 6.47 3.1 9.96 3.1 2.24 0 4.09-.86 4.09-3.23 0-2.18-2.57-3.37-6.47-4.82-4.62-1.72-7.52-3.89-7.52-8.18 0-6.86 4.75-9.83 10.96-9.83 4.82 0 8.91.92 11.29 2.44l-1.06 5.61c-3.1-1.25-6.47-2.05-8.05-2.05-2.57 0-4.16.4-4.16 2.44 0 2.24 4.29 3.1 7 4.29 4.88 2.11 7.92 4.16 7.92 9.17 0 4.03-2.57 10.43-12.8 10.43-4.36 0-8.78-1.12-11.15-2.57Zm46.79 1.39s-3.23.86-7.65.86c-7.66 0-8.25-4.75-8.25-10.56V30.51h-3.23v-4.49s4.69-1.65 6.2-6.67l1.19-3.96 5.81-.4v9.5h5.94v6.01h-5.94v15.31c0 3.04.99 4.03 2.71 4.03 1.32 0 3.23-.53 3.23-.53v5.74Zm19.14 1.19c-8.45 0-14.85-3.96-14.85-16.3 0-14.78 9.7-16.04 15.18-16.04 8.71 0 15.18 2.44 15.18 16.04s-8.05 16.3-15.51 16.3Zm.33-26.79c-3.17 0-5.02 1.78-5.02 10.49 0 7.39 1.45 10.76 5.02 10.76 3.17 0 5.01-1.45 5.01-10.76 0-6.93-.86-10.49-5.01-10.49Zm42.5 3.37c-2.31-.92-4.62-.99-6.34-.99-3.23 0-4.16 1.65-4.16 3.96v19.8h-9.96V30.78h-3.43v-4.55c2.84-1.25 5.54-1.85 7.39-1.85 3.23 0 4.75 1.39 5.35 4.82 2.11-3.43 4.49-4.88 8.32-4.88.86 0 1.78.07 2.84.26v8.25Zm3.76-2.05v-4.55c1.72-.99 4.62-1.85 6.8-1.85 6.27 0 8.45 9.11 11.88 24.48h.4c1.52-5.74 3.37-16.5 4.55-24.15h7.65c-1.45 6.93-3.76 14.25-5.67 19.8-5.94 17.03-11.35 25.54-17.22 25.54-1.72 0-2.71-.53-3.37-1.58v-7.13c1.39.2 2.51.33 3.76.33 2.51 0 4.42-.59 4.42-3.17 0-2.05-1.19-5.28-2.71-9.37-2.57-7.06-5.35-13.6-7.06-18.35h-3.43Z" fill="#363e4b"></path>
</svg>