<svg xmlns="http://www.w3.org/2000/svg" viewBox="0 0 1200.000000 1057.0000009">
  <title>Ball logo</title>
  <g transform="translate(0.000000,1057.000000) scale(0.100000,-0.100000)" fill="#363E4B" stroke="none">
<path d="M10945 10000 c-91 -24 -255 -99 -342 -158 -33 -22 -122 -96 -199
-165 -298 -267 -490 -524 -769 -1032 -99 -181 -153 -294 -291 -609 -150 -343
-215 -541 -279 -855 l-25 -124 -67 -76 c-121 -136 -328 -337 -414 -401 -107
-80 -208 -127 -323 -151 -269 -56 -391 9 -403 216 l-6 80 69 64 c222 206 560
588 784 886 310 412 728 1101 864 1425 181 427 114 680 -166 632 -236 -41
-538 -312 -972 -872 -312 -403 -456 -630 -676 -1065 -186 -368 -304 -655 -359
-870 -18 -74 -42 -205 -56 -316 -5 -41 -16 -57 -93 -139 -48 -52 -132 -134
-187 -183 -217 -192 -371 -261 -407 -181 -41 89 122 552 444 1262 61 134 108
246 104 249 -4 5 -429 -45 -432 -51 0 0 -29 -52 -63 -114 l-63 -112 -31 46
c-57 86 -147 124 -290 124 -94 -1 -145 -13 -231 -56 -233 -117 -506 -395 -766
-779 -241 -357 -411 -698 -476 -952 -30 -118 -42 -309 -25 -398 32 -171 146
-249 361 -248 186 0 321 69 528 267 95 91 196 207 274 317 l54 76 11 -66 c30
-187 100 -264 238 -263 170 0 386 136 693 437 95 93 219 222 275 287 55 65
103 118 106 118 4 -1 22 -35 41 -77 60 -131 159 -208 304 -234 283 -52 765
211 1272 695 82 77 114 102 121 93 5 -6 22 -34 38 -62 36 -64 143 -175 220
-230 109 -77 169 -100 420 -160 27 -7 15 -12 -100 -52 -71 -24 -449 -145 -840
-269 -1309 -415 -1420 -455 -2195 -787 -1251 -535 -2615 -1204 -3476 -1702
-922 -535 -2199 -1393 -2736 -1839 l-98 -81 0 -708 0 -709 363 364 c571 574
937 905 1602 1449 1060 867 1652 1293 2495 1796 1032 615 1817 983 3460 1623
809 315 2173 737 3385 1048 l110 28 3 167 c1 97 -1 167 -7 167 -5 0 -37 -9
-72 -20 -161 -49 -555 -153 -685 -180 -483 -100 -832 -73 -1109 88 -93 55
-214 182 -259 272 -38 79 -66 186 -66 258 0 39 5 47 52 90 47 43 345 368 602
655 246 276 587 722 723 946 159 261 304 571 349 748 31 120 36 250 12 305
-35 79 -168 107 -323 68z m-142 -522 c36 -44 6 -152 -104 -370 -235 -467 -722
-1134 -1023 -1400 -43 -38 -80 -67 -83 -64 -15 15 72 321 143 503 58 150 178
398 245 511 85 142 262 399 353 513 110 138 240 265 313 307 69 39 125 39 156
0z m-1647 -339 c84 -93 -90 -476 -490 -1084 -222 -336 -417 -580 -609 -760
-112 -106 -147 -133 -147 -112 0 82 79 341 172 562 249 595 720 1263 984 1395
50 25 67 25 90 -1z m-2737 -2017 c24 -18 26 -25 25 -98 -1 -65 -8 -101 -43
-201 -109 -322 -319 -693 -485 -859 -92 -92 -156 -138 -236 -171 -254 -104
-319 164 -130 537 175 346 540 746 740 811 37 12 100 3 129 -19z"></path>
<path d="M5405 9725 c-33 -7 -94 -26 -135 -42 -148 -58 -498 -295 -655 -444
l-75 -72 -433 -2 c-452 -2 -495 -5 -774 -55 -217 -39 -511 -122 -843 -238
-203 -70 -280 -102 -428 -176 -544 -272 -1003 -663 -1232 -1046 -131 -221
-200 -507 -171 -711 16 -108 41 -172 100 -256 65 -92 138 -156 225 -197 108
-51 162 -61 326 -60 165 1 252 18 340 65 58 31 160 113 160 130 0 5 -24 9 -52
9 -132 1 -263 57 -353 151 -100 105 -137 226 -116 381 35 262 159 467 462 763
169 165 309 279 509 414 368 250 602 353 1045 464 316 79 589 117 847 117
l149 0 -93 -107 c-51 -60 -165 -196 -252 -303 -88 -107 -189 -229 -226 -270
-122 -137 -421 -535 -665 -885 -228 -325 -394 -586 -875 -1370 -227 -369 -403
-648 -588 -930 -161 -246 -291 -453 -434 -695 -150 -252 -528 -923 -523 -928
2 -2 46 10 97 26 51 17 294 96 539 177 l447 145 117 283 c139 334 244 579 249
585 2 2 53 -46 113 -106 122 -124 218 -192 342 -240 169 -67 217 -76 426 -76
174 0 198 2 288 27 374 101 785 445 1037 870 250 420 359 872 284 1177 -49
198 -179 366 -403 521 -90 62 -92 64 -64 71 15 4 82 19 148 34 412 90 775 278
1031 532 160 158 270 309 324 445 49 126 63 211 57 365 -8 243 -76 411 -224
554 -101 97 -202 152 -401 218 -62 21 -115 40 -118 43 -6 6 221 184 336 264
110 75 153 93 229 93 108 0 186 -53 228 -157 10 -24 21 -43 25 -43 14 0 121
128 144 172 18 36 24 63 24 115 0 113 -53 179 -161 202 -68 15 -280 12 -354
-4z m-614 -875 c118 -43 206 -95 275 -164 100 -101 134 -202 114 -343 -31
-222 -127 -439 -296 -668 -204 -276 -478 -491 -766 -599 -154 -58 -397 -87
-553 -67 -94 13 -179 45 -172 65 16 41 520 798 706 1061 120 169 280 382 380
505 92 114 209 240 222 240 5 0 45 -13 90 -30z m-1063 -2130 c101 -28 179 -70
244 -129 65 -59 134 -161 153 -225 104 -346 -186 -1058 -600 -1471 -211 -211
-379 -284 -629 -272 -206 10 -419 64 -541 138 -60 36 -145 119 -145 141 0 17
166 352 382 773 188 366 286 547 436 803 93 160 95 163 151 192 155 78 378 98
549 50z"></path>
</g>
</svg>