<svg width="48.665657mm" viewBox="0 0 48.665657 48.567303" version="1.1" id="svg1938" xml:space="preserve" inkscape:export-filename="mg.svg" inkscape:export-xdpi="26.753868" inkscape:export-ydpi="26.753868" inkscape:version="1.2.2 (b0a8486541, 2022-12-01)" sodipodi:docname="mg.svg" xmlns:inkscape="http://www.inkscape.org/namespaces/inkscape" xmlns:sodipodi="http://sodipodi.sourceforge.net/DTD/sodipodi-0.dtd" xmlns="http://www.w3.org/2000/svg" xmlns:svg="http://www.w3.org/2000/svg"><sodipodi:namedview id="namedview1940" pagecolor="#ffffff" bordercolor="#000000" borderopacity="0.25" inkscape:showpageshadow="2" inkscape:pageopacity="0.0" inkscape:pagecheckerboard="0" inkscape:deskcolor="#d1d1d1" inkscape:document-units="mm" showgrid="false" inkscape:zoom="0.68595679" inkscape:cx="170.56468" inkscape:cy="316.34646" inkscape:window-width="1920" inkscape:window-height="973" inkscape:window-x="0" inkscape:window-y="0" inkscape:window-maximized="1" inkscape:current-layer="g2262"><inkscape:page x="0" y="0" width="48.665657" id="page2284"></inkscape:page><inkscape:page x="160.34897" y="-64.958237" width="71.201843" id="page2286"></inkscape:page></sodipodi:namedview><defs id="defs1935"><clipPath clipPathUnits="userSpaceOnUse" id="clipPath2268"><path d="M 0,201.832 H 201.832 V 0 H 0 Z" id="path2266"></path></clipPath></defs><g inkscape:label="Layer 1" inkscape:groupmode="layer" id="layer1" transform="translate(-59.65103,-64.958235)"></g><g id="g2262" transform="matrix(0.35277776,0,0,-0.35277778,6.6719607,54.926475)"><path style="fill-opacity:1;stroke-width:0.24" d="m 39.989134,18.13253 c -8.30377,0.2035 -15.21186,0.59464 -17.07003,0.96652 -1.7172,0.34366 -2.76484,1.08611 -7.28997,5.16634 -10.367262,9.34798 -23.356317,22.47052 -30.726564,31.04233 -2.405772,2.79798 -2.792136,3.74101 -3.103877,7.5759 -0.947916,11.66083 -0.948586,36.25839 -0.0012,47.88 0.325457,3.99284 0.769838,4.8773 4.582193,9.12 7.981032,8.88195 18.023756,19.03144 26.969558,27.25626 7.52922,6.92242 8.25561,7.40613 11.6802,7.77791 9.57103,1.03907 40.50857,1.03907 50.07959,0 2.9609,-0.32144 4.02608,-0.91994 8.11309,-4.55851 9.57334,-8.52295 20.565676,-19.46984 29.347176,-29.22586 4.05073,-4.50025 4.92576,-5.65331 5.29896,-6.9826 1.30277,-4.64033 1.59737,-36.58248 0.47174,-51.14708 -0.36685,-4.7467 -0.36902,-4.75042 -7.08194,-12.14354 -10.4658,-11.52625 -29.292756,-29.65029 -32.391706,-31.18234 -1.45237,-0.71802 -3.52272,-0.94313 -11.87711,-1.29142 -8.76806,-0.36553 -18.6526,-0.45849 -27,-0.25391 z m 23.4,5.27748 c 9.03517,0.35426 11.53396,0.58854 12.71746,1.19232 2.81044,1.43378 19.47727,17.31739 28.717276,27.36778 5.66697,6.16399 7.21535,8.05575 7.62254,9.313 0.70052,2.16296 0.97942,9.40643 0.9811,25.48051 9.6e-4,10.22427 -0.10435,17.02821 -0.31051,20.04 -0.28947,4.229 -0.36332,4.66453 -1.01727,6 -2.15947,4.40995 -32.069406,34.31949 -36.159316,36.15884 -2.24501,1.00964 -20.91867,1.63833 -35.43449,1.19297 -13.14465,-0.40329 -15.05954,-0.56502 -16.66036,-1.40711 -3.22285,-1.69535 -21.272557,-19.14944 -31.188639,-30.15945 -3.788619,-4.20656 -4.658881,-5.345 -5.064613,-6.62525 -1.119398,-3.53215 -1.330524,-38.22867 -0.295118,-48.4995 0.106922,-1.06063 0.406474,-2.30127 0.699622,-2.89763 2.016379,-4.10194 31.251078,-33.3354 35.850248,-35.84872 0.94386,-0.51579 1.64483,-0.66235 4.11025,-0.85937 8.06241,-0.64429 24.97656,-0.85834 35.43182,-0.44839 z m -28.68,8.40242 c -1.716,0.0894 -3.147,0.17806 -3.18,0.19691 -0.033,0.0189 -0.06,18.57788 -0.06,41.24228 0,23.04747 -0.091,41.10752 -0.2066,40.98 -0.11363,-0.1254 -1.83651,-4.332 -3.82863,-9.348 -3.4607,-8.71379 -5.58728,-14.33296 -9.78292,-25.84993 -1.04389,-2.86546 -1.96772,-5.13346 -2.05294,-5.04 -0.0852,0.0935 -2.50294,4.32793 -5.37268,9.40993 -2.869752,5.082 -5.323905,9.348 -5.453683,9.48 -0.519492,0.5284 0.03219,-27.26894 0.740374,-37.30484 L 5.68881,53.07394 2.716091,56.17878 c -1.634996,1.70766 -3.903195,4.17115 -5.040447,5.47442 -2.508055,2.87419 -2.310115,1.85982 -2.698807,13.83042 -0.221232,6.81341 -0.219372,11.23992 0.0084,19.92 0.382886,14.59265 0.267079,13.70282 2.050087,15.75207 0.788609,0.90636 2.36633798,2.61582 3.50606698,3.79879 l 2.07223202,2.15086 1.317343,-2.03086 c 1.159224,-1.7871 5.473818,-9.04596 8.587708,-14.44791 0.58877,-1.02138 1.13977,-1.85838 1.22446,-1.86 0.0847,-0.002 0.22853,0.29405 0.31963,0.65705 0.26378,1.05099 3.79097,10.42052 6.48253,17.22 3.08654,7.79731 5.38887,13.21294 8.3806,19.71317 2.12692,4.62124 2.39513,5.08521 3.01079,5.20834 0.37173,0.0743 3.60461,0.21121 7.18417,0.30414 l 6.5083,0.16897 V 86.80093 31.56362 l -3.9,0.0431 c -2.145,0.0237 -5.304,0.11627 -7.02,0.20572 z m 19.9804,2.33119 c -0.11854,3.38012 -0.11789,101.87392 7.2e-4,105.27545 l 0.0912,2.61545 5.32387,-0.16717 c 2.92812,-0.0919 6.93716,-0.27338 8.90899,-0.40321 l 3.58514,-0.23604 1.33486,-1.09449 c 6.60241,-5.41349 29.041106,-28.02808 30.418526,-30.65697 0.24815,-0.47362 0.79633,-6.64768 0.79633,-8.96892 v -0.7841 h -4.92 -4.919996 l -0.021,1.74 c -0.0452,3.73706 0.005,3.62868 -3.45899,7.42913 -4.94932,5.42959 -11.79264,12.32442 -17.64001,17.77277 l -5.4,5.03151 -0.0612,-22.46671 c -0.0337,-12.35668 -0.0337,-32.57103 0,-44.92076 l 0.0612,-22.45407 3.96,3.65648 c 4.77648,4.41038 15.37555,14.97703 19.37313,19.31388 l 2.89642,3.14222 0.13779,2.25778 c 0.0758,1.24177 0.18649,3.31077 0.246,4.59777 l 0.1082,2.34 h -4.66077 -4.66077 v 4.8 4.8 h 9.61579 9.615776 l -0.15013,-6.42 c -0.21545,-9.21371 -0.56143,-15.61491 -0.87654,-16.21778 -1.84805,-3.53563 -30.082466,-31.47392 -32.275006,-31.9365 -1.32623,-0.27981 -8.40728,-0.62402 -12.85444,-0.62487 l -4.48456,-8.5e-4 z" id="path2354"></path></g></svg>