<svg width="22" height="26" fill="none" viewBox="0 0 22 26" preserveAspectRatio="xMidYMid meet" xmlns="http://www.w3.org/2000/svg"><title>Time duration</title><path d="M11 0C10.448 0 10 0.436513 10 0.974359C10 1.06088 10.029 1.13807 10.0508 1.21795C9.42754 1.54791 9 2.18303 9 2.92308C9 3.33509 9.13368 3.71597 9.35742 4.03065C4.07189 4.80787 0 9.25272 0 14.6154C0 20.5233 4.93659 25.3333 11 25.3333C17.0634 25.3333 22 20.5233 22 14.6154C22 9.25272 17.9281 4.80787 12.6426 4.03065C12.8663 3.71597 13 3.33509 13 2.92308C13 2.18303 12.5725 1.54791 11.9492 1.21795C11.971 1.13807 12 1.06088 12 0.974359C12 0.436513 11.552 0 11 0ZM11 5.84615C15.9826 5.84615 20 9.76055 20 14.6154C20 19.4702 15.9826 23.3846 11 23.3846C6.01741 23.3846 2 19.4702 2 14.6154C2 9.76055 6.01741 5.84615 11 5.84615ZM10.9844 7.78155C10.7195 7.78559 10.4671 7.89185 10.2825 8.07702C10.098 8.26219 9.99637 8.51114 10 8.76923V14.6154C10.0001 14.8738 10.1054 15.1216 10.293 15.3043L13.293 18.2274C13.3851 18.3209 13.4955 18.3955 13.6176 18.447C13.7397 18.4984 13.8712 18.5256 14.0042 18.5269C14.1373 18.5282 14.2692 18.5037 14.3924 18.4547C14.5156 18.4057 14.6275 18.3332 14.7216 18.2415C14.8156 18.1499 14.89 18.0408 14.9403 17.9208C14.9906 17.8008 15.0158 17.6722 15.0144 17.5426C15.0131 17.4129 14.9852 17.2849 14.9324 17.1659C14.8796 17.0469 14.803 16.9393 14.707 16.8496L12 14.2119V8.76923C12.0018 8.63887 11.9768 8.50948 11.9264 8.38872C11.876 8.26796 11.8012 8.15828 11.7065 8.06618C11.6118 7.97408 11.4991 7.90144 11.375 7.85255C11.251 7.80366 11.1182 7.77952 10.9844 7.78155Z" fill="currentColor"></path></svg>