<svg xmlns="http://www.w3.org/2000/svg" viewBox="0 0 152 152">
  <title>Camden Town Brewery logo</title>
  <path fill="#363E4B" d="M76 5.4c39 0 70.6 31.6 70.6 70.6 0 39-31.6 70.6-70.6 70.6C37 146.6 5.4 115 5.4 76 5.4 37 37 5.4 76 5.4M76 1C56 1 37.1 8.8 23 23 8.8 37.1 1 56 1 76s7.8 38.9 22 53c14.2 14.2 33 22 53 22s38.9-7.8 53-22c14.2-14.2 22-33 22-53s-7.8-38.9-22-53C114.9 8.8 96 1 76 1"></path>
  <path fill="#363E4B" d="M90.4 93.4L86 89l-1-15.9 1.6-2.1.2-5.8h-3.5v2.1h-2.6v-2.1h-3.5v2.1h-2.6v-2.1h-3.5v2.1h-2.6v-2.1H65l.2 5.8 1.6 2.1L66 89l-4.4 4.4-15.5 15.5c7.9 7.2 18.4 11.6 29.9 11.6s22-4.4 29.9-11.6L90.4 93.4zM26.8 60c-.2.7-.6 1.4-1.1 2-.5.6-1 1-1.7 1.4-.6.3-1.3.5-2.1.6-.8.1-1.5 0-2.3-.3-.8-.2-1.4-.6-2-1.1-.6-.5-1-1.1-1.4-1.7-.3-.6-.5-1.3-.6-2.1-.1-.8 0-1.5.3-2.3.2-.5.4-1 .6-1.4.2-.4.5-.8.8-1.1.3-.3.6-.6 1-.8.4-.2.7-.4 1.1-.5l1 2.7c-.5.2-.9.4-1.2.7-.3.3-.6.7-.7 1.2-.1.4-.1.7-.1 1.1 0 .4.2.7.3 1 .2.3.4.6.7.8.3.2.6.4 1 .5.4.1.8.2 1.2.2.4 0 .7-.1 1.1-.2.3-.1.6-.3.8-.6.2-.3.4-.6.5-.9.1-.3.1-.5.1-.8 0-.2 0-.5-.1-.7-.1-.2-.1-.4-.2-.6-.1-.2-.2-.4-.4-.7l2.2-1.7c.3.4.5.7.7 1.1.2.4.3.8.4 1.2.1.4.1.9.1 1.4.2.5.1 1 0 1.6m2.2-6.7l1.7-2.7-1.2-1.7 2.3-3.6 2.1.4 1.8-2.8-11.9-2-1.6 2.5 6.8 9.9zm-1.1-6.4l-2-2.7 3.3.6-1.3 2.1zm9.6-5.9l2.3-2-4.1-4.7 4.9 1.4-.7-5.1 4.2 4.7 2.3-2L39 25l-2.4 2.1.8 4.9-4.8-1.5-2.4 2.1 7.3 8.4zm11.8-9.7l3.8-1.8c.9-.4 1.6-.9 2.2-1.5.6-.6 1-1.2 1.3-1.9s.4-1.4.4-2.1c0-.7-.2-1.5-.6-2.2-.4-.7-.9-1.3-1.4-1.8-.5-.5-1.1-.8-1.8-1-.7-.2-1.4-.3-2.2-.2-.8.1-1.7.3-2.6.8l-3.8 1.8 4.7 9.9zm1.6-3.8l-2.4-5.1 1.1-.5c.8-.4 1.6-.5 2.3-.3.7.2 1.3.7 1.6 1.5.4.8.4 1.5.1 2.2-.3.7-.9 1.2-1.7 1.6l-1 .6zm10.5-1.3l8.7-1.8-.5-2.5-5.7 1.1-.4-1.7 5.2-1.1-.5-2.4L63 19l-.3-1.6 5.7-1.2-.5-2.5-8.7 1.8 2.2 10.7zm12.4-2.1l3 .2.3-6 4.4 6.3 2.7.1.6-11-3-.2-.3 5.8-4.2-6.1-2.8-.2-.7 11.1zM95.4 28l2.8 1.2 3.3-7.6 3 1.3 1.1-2.4-8.8-3.9-1.1 2.4 3 1.3-3.3 7.7zm12.1 7.1c.7.5 1.4.9 2.1 1.1.8.2 1.5.3 2.2.2.7-.1 1.4-.3 2.1-.7.7-.4 1.2-.9 1.7-1.5s.8-1.3 1-2c.2-.7.2-1.5.1-2.2-.1-.7-.3-1.4-.7-2.1-.4-.7-.9-1.3-1.6-1.8-.7-.5-1.4-.9-2.1-1.1-.8-.2-1.5-.3-2.2-.2-.7.1-1.4.3-2.1.7-.7.4-1.2.9-1.7 1.5s-.8 1.3-1 2c-.2.7-.2 1.5-.1 2.2.1.7.3 1.4.7 2.1.4.7.9 1.3 1.6 1.8m1.7-2.2c-.3-.3-.6-.6-.8-.9-.2-.3-.3-.7-.3-1.1 0-.4 0-.7.1-1.1.1-.4.3-.7.5-1 .2-.3.5-.6.8-.8.3-.2.7-.3 1-.4.4-.1.7-.1 1.1 0 .4.1.7.3 1.1.5.3.3.6.6.8.9.2.3.3.7.3 1.1 0 .4 0 .7-.1 1.1-.1.4-.3.7-.5 1-.2.3-.5.6-.8.8-.3.2-.7.3-1 .4-.4.1-.7.1-1.1 0-.4-.1-.8-.2-1.1-.5m5.8 8.9l1.6 2.2 6.4-2-3.8 5.5 1.6 2.2 11.1-3.5-1.9-2.6-6.3 2.2 3.9-5.5-1.5-2.1-6.4 2 4-5.3-1.9-2.6-6.8 9.5zm8.3 12.4l1 2.8 5.7-2-4.2 6.4.9 2.5 10.4-3.6-1-2.8-5.5 1.9 4-6.2-.9-2.7-10.4 3.7zm-95.1 63.2l4 4.1c.9.9 1.8 1.5 2.7 1.6.9.2 1.7-.1 2.4-.8.5-.5.8-1.1.8-1.6 0-.6-.1-1.2-.4-1.8.5.2 1 .3 1.5.2.5 0 1-.3 1.4-.7.3-.3.5-.5.6-.8.1-.3.2-.6.2-.9 0-.5-.1-.9-.3-1.4-.2-.5-.6-.9-1.1-1.4l-3.9-4-7.9 7.5zm3.9.4l1.4-1.4 1.6 1.7c.4.4.6.7.6 1 0 .3 0 .6-.3.8-.2.2-.5.3-.8.2-.3-.1-.6-.3-.9-.6l-1.6-1.7zm2.9-2.9l1.4-1.4 1.4 1.4c.3.3.5.6.5.9 0 .3 0 .5-.3.7-.2.2-.5.3-.8.2-.3-.1-.6-.3-.9-.6l-1.3-1.2zm4.6 12.9l2.6 1.6 1.7-2.9 1.1.7.2 4 3 1.8-.3-4.6c.7.1 1.4 0 2.1-.2.6-.3 1.2-.8 1.6-1.5.6-.9.7-1.8.5-2.7-.1-.5-.4-1-.8-1.5s-1-.9-1.7-1.4l-4.5-2.7-5.5 9.4zm5.6-3.4l1.4-2.3 1.7 1c.4.3.7.6.9.9.1.3.1.7-.1 1.1-.2.3-.5.5-.9.6-.4.1-.8 0-1.2-.3l-1.8-1zm8.1 10.7l8.5 2.6.8-2.5-5.7-1.7.5-1.7 5 1.6.7-2.3-5-1.6.5-1.6 5.6 1.7.8-2.5-8.4-2.6-3.3 10.6zm38 2.5l8.4-2.7-.8-2.5-5.6 1.8-.5-1.7 5-1.6-.7-2.3-5 1.6-.5-1.6 5.5-1.8-.8-2.5L88 127l3.3 10.6zm13.9-5.4l2.6-1.6-1.7-2.8 1.1-.7 3.6 1.7 3-1.9-4.2-1.9c.4-.6.7-1.3.7-2 .1-.7-.1-1.4-.6-2.1-.6-.9-1.3-1.5-2.2-1.7-.5-.1-1.1-.1-1.7 0-.6.1-1.3.4-2 .9l-4.4 2.7 5.8 9.4zm-.4-6.5l-1.4-2.2 1.7-1c.4-.3.8-.4 1.2-.4.4 0 .7.2.9.6.2.3.3.7.1 1-.1.4-.4.7-.8.9l-1.7 1.1zm15.1-4.4l2.1-2.2-3-2.9-2-7.8-2.4 2.4 1.3 4.4-4.4-1.2-2.4 2.5 7.8 1.8 3 3zm-52.1 6.4c.5 1.5.9 2.8 1.3 4 .4 1.2.8 2.3 1.1 3.5.4 1.2.8 2.5 1.3 4 1 0 1.6 0 2.6.1.4-1.3.7-2.3 1-3.2.3-1 .6-2 1-3.3.5 1.3.8 2.3 1.1 3.3.3 1 .7 1.9 1.1 3.2 1 0 1.6 0 2.6-.1.5-1.5.8-2.8 1.2-4 .4-1.2.7-2.3 1-3.5.4-1.2.7-2.5 1.2-4-1.2.1-1.8.1-3.1.2-.4 1.3-.6 2.3-.9 3.3-.3 1-.5 2-.9 3.3-.4-1.3-.8-2.3-1.1-3.3-.3-1-.7-2-1.1-3.3h-2.6c-.4 1.3-.7 2.3-1 3.3-.3 1-.6 2-1 3.3-.4-1.3-.7-2.3-1-3.3-.3-1-.6-2-1-3.3-1-.1-1.6-.1-2.8-.2"></path>
  <g fill="#363E4B">
    <path d="M46.1 108.9l15.5-15.5-15.5 15.5zM98.6 76c0 6.6-2.9 12.6-7.5 16.8l15.4 15.5c8.6-8.1 13.9-19.6 13.9-32.3 0-24.5-19.9-44.4-44.4-44.4S31.6 51.5 31.6 76c0 12.7 5.3 24.1 13.8 32.2l15.5-15.5c-4.5-4.1-7.4-10.1-7.4-16.7 0-12.5 10.1-22.6 22.6-22.6 12.4 0 22.5 10.1 22.5 22.6z"></path>
  </g>
</svg>