<svg viewBox="0 0 18 15" version="1.1" xmlns="http://www.w3.org/2000/svg" xmlns:xlink="http://www.w3.org/1999/xlink">
    <!-- Generator: Sketch 41.2 (35397) - http://www.bohemiancoding.com/sketch -->
    <title>Twitter</title>
    <defs></defs>
    <g id="Symbols" stroke="none" stroke-width="1" fill="none" fill-rule="evenodd">
        <g id="Tweet" transform="translate(-95.000000, -23.000000)" fill="#F00000">
            <g id="M3">
                <g id="Name-and-stuff" transform="translate(95.000000, 17.000000)">
                    <path d="M18,7.73165068 C17.3379101,8.02523978 16.6259465,8.22392731 15.879051,8.31317516 C16.6412923,7.85603231 17.227057,7.1323574 17.5026754,6.26996466 C16.7892983,6.69298334 15.9989904,7.0005048 15.1577991,7.16607774 C14.4841999,6.44846037 13.5242807,6 12.4621908,6 C10.4228168,6 8.76930843,7.65330641 8.76930843,9.69288238 C8.76930843,9.98202928 8.80181726,10.264109 8.86481575,10.5342756 C5.79586068,10.380212 3.07460878,8.91004543 1.25310449,6.67582029 C0.935285209,7.22140333 0.753154972,7.85562847 0.753154972,8.53245835 C0.753154972,9.81362948 1.404947,10.9439677 2.39616355,11.6062595 C1.79081272,11.5870772 1.22120141,11.4208985 0.723271075,11.1442706 C0.722867239,11.1596164 0.722867239,11.175366 0.722867239,11.1907118 C0.722867239,12.9799091 1.99596164,14.4724886 3.68520949,14.8117113 C3.37546694,14.8961131 3.04936901,14.9413428 2.71256941,14.9413428 C2.47450782,14.9413428 2.24331146,14.9183241 2.0177688,14.8751136 C2.48763251,16.3422514 3.85159011,17.409995 5.46733973,17.4396769 C4.20353357,18.4300858 2.61120646,19.0204947 0.881171126,19.0204947 C0.58293791,19.0204947 0.288944977,19.0031297 0,18.9688036 C1.6343261,20.0167592 3.57536598,20.6281676 5.6609793,20.6281676 C12.4535083,20.6281676 16.1681979,15.0009086 16.1681979,10.120949 C16.1681979,9.96082786 16.1643614,9.8017163 16.1572943,9.6432105 C16.8787481,9.12266532 17.5050984,8.47208481 18,7.73165068" id="twitter"></path>
                </g>
            </g>
        </g>
    </g>
</svg>