<svg version="1.1" viewBox="0 0 272.13 289.86" xml:space="preserve" xmlns="http://www.w3.org/2000/svg">
    <g transform="matrix(1.3333 0 0 -1.3333 -1363.2 721.15)">
        <g transform="translate(-31.5 -19.5)">
            <g transform="translate(1152 540.57)">
                <path d="m0 0c9.98 0 18.946-4.34 25.117-11.234h23.439c-8.49 18.318-27.037 31.026-48.556 31.026-21.518 0-40.065-12.708-48.555-31.026h23.438c6.171 6.894 15.137 11.234 25.117 11.234" fill="#fff"></path>
            </g>
            <g transform="translate(1152 473.17)">
                <path d="m 0,0 c -9.98,0 -18.946,4.34 -25.116,11.233 h -23.439 c 8.49,-18.318 27.037,-31.026 48.555,-31.026 21.519,0 40.066,12.708 48.556,31.026 H 25.116 C 18.946,4.34 9.98,0 0,0" fill="#fff"></path>
            </g>
            <g transform="translate(1184.2 516.77)">
                <path d="m0 0h-84.797c-0.6-3.208-0.918-6.515-0.918-9.896 0-3.382 0.318-6.689 0.918-9.896h84.797c0.96 3.129 1.478 6.452 1.478 9.896s-0.518 6.767-1.478 9.896" fill="#fff"></path>
            </g>
            <g transform="translate(1198.9 425.16)">
                <path d="m0 0 6.025-25.067h7.558l-6.456 25.067z" fill="#fff"></path>
            </g>
            <g transform="translate(1198.8 414.03)">
                <path d="m0 0h-5.247l3.401 13.728h4.631c1.817 0 3.289 1.472 3.289 3.289 0 1.816-1.472 3.294-3.289 3.294h-9.941l-8.775-34.254h7.229l1.825 7.365h8.465z" fill="#fff"></path>
            </g>
            <path d="m1222.7 434.35h-6.851v-25.074h6.851z" fill="#fff"></path>
            <g transform="translate(1232.2 406.67)">
                <path d="m0 0h-16.381v-6.576h16.381c1.812 4e-3 3.281 1.474 3.281 3.288s-1.469 3.284-3.281 3.288" fill="#fff"></path>
            </g>
            <path d="m1245.2 434.35h-6.851v-25.074h6.851z" fill="#fff"></path>
            <g transform="translate(1254.7 406.67)">
                <path d="m0 0h-16.381v-6.576h16.381c1.812 4e-3 3.281 1.474 3.281 3.288s-1.469 3.284-3.281 3.288" fill="#fff"></path>
            </g>
            <g transform="translate(1150.8 434.35)">
                <path d="m0 0h-19.533v-6.577l19.533 1e-3c1.812 4e-3 3.281 1.474 3.281 3.288s-1.469 3.284-3.281 3.288" fill="#fff"></path>
            </g>
            <path d="m1139.2 400.09h6.851v25.074h-6.851z" fill="#fff"></path>
            <g transform="translate(1106.6 424.58)">
                <path d="m0 0c-0.044-0.405-0.095-1.409-0.123-2.337-0.027-0.875-0.053-2.418-0.053-5.114 0-2.562 0.024-4.047 0.049-4.902 0.029-0.999 0.085-1.994 0.131-2.411 0.584-5.278 4.767-9.478 10.031-10.109v6.501c-1.557 0.485-2.764 1.769-3.131 3.374-0.076 0.331-0.156 1.529-0.193 2.75-0.032 1.035-0.06 2.589-0.06 4.797 0 2.161 0.027 3.73 0.058 4.803 0.037 1.318 0.107 2.476 0.161 2.757 0.321 1.679 1.556 3.034 3.165 3.536v6.501c-5.277-0.633-9.466-4.851-10.035-10.146" fill="#fff"></path>
            </g>
            <g transform="translate(1129.4 424.58)">
                <path d="m0 0c-0.569 5.295-4.759 9.513-10.035 10.146v-6.501c1.609-0.502 2.844-1.857 3.165-3.536 0.054-0.281 0.124-1.439 0.161-2.757 0.031-1.073 0.058-2.642 0.058-4.803 0-2.208-0.029-3.762-0.06-4.797-0.037-1.221-0.117-2.419-0.193-2.75-0.367-1.605-1.574-2.889-3.131-3.374v-6.501c5.264 0.631 9.447 4.831 10.031 10.109 0.046 0.417 0.102 1.412 0.131 2.411 0.025 0.855 0.049 2.34 0.049 4.902 0 2.696-0.026 4.239-0.053 5.114-0.028 0.928-0.079 1.932-0.123 2.337" fill="#fff"></path>
            </g>
            <path d="m1157.2 400.09h6.851v25.074h-6.851z" fill="#fff"></path>
            <g transform="translate(1173.6 420.19)">
                <path d="m0 0c-0.614 0.116-1.051 0.15-1.835 0.181 0 0-0.201 0.017-1.149 0.017-0.246 0-0.429-3e-3 -0.849-0.021-0.132-5e-3 -0.263-7e-3 -0.391-0.022-1.658-0.192-2.92-1.592-2.92-3.289 0-1.829 1.482-3.311 3.311-3.311 0 0 0.468-8e-3 1.02-0.014 0.552-5e-3 0.726 0 0.967-0.011 0.24-0.011 0.446-0.026 0.679-0.077 1.629-0.355 2.789-1.718 2.789-3.415 0-1.939-1.577-3.516-3.516-3.516h-4.856v-6.622h4.856c5.591 0 10.139 4.548 10.139 10.138 0 4.944-3.556 9.073-8.245 9.962" fill="#fff"></path>
            </g>
            <g transform="translate(1170 427.74)">
                <path d="m0 0c1.797-0.205 3.193-1.724 3.204-3.574v-1.741h6.851s-3e-3 1.453-5e-3 1.478l5e-3 -2e-3c0 5.168-3.759 9.448-8.689 10.283-0.154 0.027-0.513 0.088-0.852 0.113s-1.009 0.045-1.009 0.045h-12.286v-6.577l12.327-1e-3c0.162 0 0.306-0.013 0.454-0.024" fill="#fff"></path>
            </g>
            <path d="m1053.9 400.09h6.851v25.074h-6.851z" fill="#fff"></path>
            <g transform="translate(1073.4 427.77)">
                <path d="m0 0c1.812 4e-3 3.281 1.474 3.281 3.288s-1.469 3.284-3.281 3.288v1e-3h-19.533v-6.577z" fill="#fff"></path>
            </g>
            <g transform="translate(1079.1 424.58)">
                <path d="m0 0c-0.044-0.405-0.095-1.409-0.123-2.337-0.027-0.875-0.053-2.418-0.053-5.114 0-2.562 0.024-4.047 0.049-4.902 0.029-0.999 0.085-1.994 0.131-2.411 0.584-5.278 4.767-9.478 10.031-10.109v6.501c-1.557 0.485-2.764 1.769-3.131 3.374-0.076 0.331-0.156 1.529-0.193 2.75-0.031 1.035-0.06 2.589-0.06 4.797 0 2.161 0.027 3.73 0.058 4.803 0.037 1.318 0.107 2.476 0.161 2.757 0.321 1.679 1.556 3.034 3.165 3.536v6.501c-5.276-0.633-9.466-4.851-10.035-10.146" fill="#fff"></path>
            </g>
            <g transform="translate(1101.9 424.58)">
                <path d="m0 0c-0.569 5.295-4.759 9.513-10.035 10.146v-6.501c1.609-0.502 2.844-1.857 3.165-3.536 0.054-0.281 0.124-1.439 0.161-2.757 0.031-1.073 0.058-2.642 0.058-4.803 0-2.208-0.029-3.762-0.06-4.797-0.037-1.221-0.117-2.419-0.193-2.75-0.367-1.605-1.574-2.889-3.131-3.374v-6.501c5.264 0.631 9.447 4.831 10.031 10.109 0.046 0.417 0.102 1.412 0.131 2.411 0.025 0.855 0.049 2.34 0.049 4.902 0 2.696-0.026 4.239-0.053 5.114-0.028 0.928-0.079 1.932-0.123 2.337" fill="#fff"></path>
            </g>
            <path d="m1063.5 420.64h10.941v-6.577h-10.941z" fill="#fff"></path>
            <g transform="translate(1247.8 453.4)">
                <path d="m0 0v-1.883h-1.883v-7.261h-2.151v7.261h-1.883v1.883z" fill="#fff"></path>
            </g>
            <g transform="translate(1255 453.4)">
                <path d="m0 0h3.012v-9.144h-2.151v6.696h-0.054l-1.345-4.142h-2.03l-1.332 4.129h-0.067v-6.683h-2.152v9.144h3.013l1.506-4.074h0.148z" fill="#fff"></path>
            </g>
            <g transform="translate(1113.5 343.91)">
                <path d="m0 0c-1.774 0.389-3.154 1.23-4.659 2.757-1.654 1.671-7.561 8.653-7.561 8.653l9.422 8.94h-5.1l-8.596-8.408c-0.374-0.364-0.597-0.607-0.789-0.845h-0.049c0.012 0.283 0.025 0.581 0.025 0.872v6.722c0 0.914-0.741 1.659-1.661 1.659h-4.463c-0.21 0-0.237-0.228-0.077-0.303 0.676-0.305 1.206-0.67 1.206-1.876v-18.363h4.995v9.465c0 0.241-0.013 0.427-0.025 0.703h0.049c0.174-0.281 0.47-0.603 0.789-0.995 0 0 5.245-6.166 5.806-6.745 2.224-2.33 5.339-3.149 10.663-2.637 0.292 0.029 0.296 0.334 0.025 0.401" fill="#fff"></path>
            </g>
            <g transform="translate(1123.2 345.07)">
                <path d="m0 0c-4.137 0-6.501 4.042-6.501 8.657 0 5.314 2.364 9.178 6.501 9.178 4.129 0 6.494-4.037 6.494-8.655 0-5.459-2.365-9.18-6.494-9.18m0 19.939c-6.933 0-12.047-4.826-12.047-11.02s4.706-11.021 12.047-11.021c6.929 0 12.04 4.827 12.04 11.021s-4.707 11.02-12.04 11.02" fill="#fff"></path>
            </g>
            <g transform="translate(1211.6 343.72)">
                <path d="m0 0-3.073 18.745c-0.154 0.937-1.02 1.796-2.097 1.796h-2.877l-5.042-11.69c-0.229-0.528-0.38-0.941-0.489-1.245h-0.026c-0.103 0.326-0.252 0.705-0.452 1.176l-4.446 10.428h-6e-3c-0.323 0.745-1.065 1.331-1.996 1.331h-4.415c-0.212 0-0.238-0.228-0.076-0.302 0.601-0.27 1.032-0.71 0.851-1.863l-3.016-18.376h3.179l2.008 12.963c0.097 0.66 0.214 1.466 0.25 1.873h0.025c0.198-0.534 0.452-1.175 0.742-1.837l5.538-12.999h1.647l5.604 13.227c0.325 0.787 0.539 1.342 0.69 1.761h0.025c0.062-0.505 0.166-1.279 0.282-2.055l2.077-12.933h5.093" fill="#fff"></path>
            </g>
            <g transform="translate(1219.2 364.26)">
                <path d="m0 0h-4.664c-0.215 0-0.239-0.229-0.08-0.301 0.676-0.306 1.209-0.672 1.209-1.878v-18.362h5.196v18.881c0 0.915-0.746 1.66-1.661 1.66" fill="#fff"></path>
            </g>
            <g transform="translate(1155.2 364.26)">
                <path d="m0 0v-11.741c0-0.579 0.027-0.937 0.048-1.456h-0.048c-0.397 0.558-0.838 1.128-1.483 1.889l-8.834 10.211c-0.694 0.789-1.25 1.094-2.513 1.097h-4.494c-0.209 0-0.234-0.229-0.073-0.301 0.679-0.306 1.206-0.672 1.206-1.878v-18.362h3.361v13.205c0 0.71-0.029 1.261-0.05 1.847h0.05c0.618-0.833 1.472-1.935 2.159-2.735l10.604-12.317h1.767c0.915 0 1.66 0.747 1.66 1.659v18.882h-3.36" fill="#fff"></path>
            </g>
            <g transform="translate(1167.2 350.93)">
                <path d="m0 0 3.217 7.082c0.16 0.359 0.299 0.68 0.346 0.851h0.056c0.062-0.203 0.196-0.519 0.345-0.864l3.134-7.069zm10.297-7.213h5.654l-8.93 19.276c-0.326 0.697-1.033 1.264-1.959 1.264h-3.901c-0.219 0-0.238-0.22-0.081-0.3 0.478-0.238 0.807-1.03 0.46-1.769l-8.635-18.471h3.816l2.15 4.731h9.325l2.101-4.731" fill="#fff"></path>
            </g>
        </g>
    </g>
</svg>