<svg xmlns="http://www.w3.org/2000/svg" viewBox="0 0 488.9 178.02">
  <title>Jugo logo</title>
  <path d="M199.25 2.79H229v67.4c0 36-21.5 50.48-53.87 50.48s-53.86-14.49-53.86-50.48V2.79h29.71v59.42c0 19.33 3.86 30 24.15 30s24.16-10.63 24.16-30ZM80.12 2.17V114.5c0 26.32-14.25 35-31.89 35A31.92 31.92 0 0 1 24 138.08l-24 16.6A60.9 60.9 0 0 0 48.23 178c22.47 0 61.6-8 61.6-69.32V2.17ZM427.79.05c-31.48 0-57.09 23-60.48 53.09 20.83-1.2 31.11-13.1 43.45-19.91a32.5 32.5 0 0 1 14.63-4.63h.41c.67 0 1.34-.07 2-.07a31.58 31.58 0 1 1 0 63.16c-1.08 0-2.12-.06-3.14-.16h-.31c-.43 0-.86-.09-1.29-.16l-1-.16-.62-.11a32.4 32.4 0 0 1-9-3.22c-13.12-6.67-23.37-19.57-45.09-20.88 3.53 29.78 29.07 53.06 60.44 53.06 34 0 61.11-27 61.11-60.14 0-33.3-27.06-59.87-61.11-59.87ZM315.33 87.82a32.34 32.34 0 0 1-9 3.22l-.63.11-1 .16c-.42.07-.85.12-1.29.16h-.3c-1 .1-2.07.16-3.16.16a31.58 31.58 0 1 1 0-63.16c.68 0 1.34 0 2 .07h.41A32.46 32.46 0 0 1 317 33.23c12.49 6.89 22.87 19 44.2 20v-51h-29.73v8.46C322.05 3.14 311.18 0 299.58 0c-33.81 0-60.87 26.57-60.87 59.9 0 33.1 27.06 60.15 60.87 60.15 11.84 0 22.71-3.14 31.89-10.63v5.08c0 26.32-14.25 35-31.89 35a31.94 31.94 0 0 1-24.38-11.58l-24 16.61A60.92 60.92 0 0 0 299.58 178c22.47 0 61.6-8 61.6-69.32V67c-22.26 1-32.6 14.13-45.85 20.82Z"></path>
</svg>